ISO-10303-21;
HEADER;
/* Generated by software containing ST-Developer
 * from STEP Tools, Inc. (www.steptools.com) 
 */

FILE_DESCRIPTION(
/* description */ (''),
/* implementation_level */ '2;1');

FILE_NAME(
/* name */ '4-Cells Battery Base.step',
/* time_stamp */ '2026-05-11T00:04:06+05:00',
/* author */ (''),
/* organization */ (''),
/* preprocessor_version */ 'ST-DEVELOPER v20.1',
/* originating_system */ 'Autodesk Translation Framework v15.8.0.0',
/* authorisation */ '');

FILE_SCHEMA (('AUTOMOTIVE_DESIGN { 1 0 10303 214 3 1 1 }'));
ENDSEC;

DATA;
#10=MECHANICAL_DESIGN_GEOMETRIC_PRESENTATION_REPRESENTATION('',(#13),#1440);
#11=SHAPE_REPRESENTATION_RELATIONSHIP('SRR','None',#1447,#12);
#12=ADVANCED_BREP_SHAPE_REPRESENTATION('',(#14),#1439);
#13=STYLED_ITEM('',(#1457),#14);
#14=MANIFOLD_SOLID_BREP('Body1',#904);
#15=FACE_BOUND('',#114,.T.);
#16=FACE_BOUND('',#115,.T.);
#17=FACE_BOUND('',#151,.T.);
#18=FACE_BOUND('',#153,.T.);
#19=FACE_BOUND('',#154,.T.);
#20=PLANE('',#924);
#21=PLANE('',#925);
#22=PLANE('',#926);
#23=PLANE('',#927);
#24=PLANE('',#928);
#25=PLANE('',#929);
#26=PLANE('',#930);
#27=PLANE('',#931);
#28=PLANE('',#932);
#29=PLANE('',#933);
#30=PLANE('',#934);
#31=PLANE('',#935);
#32=PLANE('',#936);
#33=PLANE('',#937);
#34=PLANE('',#938);
#35=PLANE('',#939);
#36=PLANE('',#940);
#37=PLANE('',#941);
#38=PLANE('',#942);
#39=PLANE('',#943);
#40=PLANE('',#944);
#41=PLANE('',#945);
#42=PLANE('',#946);
#43=PLANE('',#947);
#44=PLANE('',#948);
#45=PLANE('',#949);
#46=PLANE('',#950);
#47=PLANE('',#951);
#48=PLANE('',#952);
#49=PLANE('',#953);
#50=PLANE('',#954);
#51=PLANE('',#955);
#52=PLANE('',#956);
#53=PLANE('',#957);
#54=PLANE('',#958);
#55=PLANE('',#959);
#56=PLANE('',#960);
#57=PLANE('',#961);
#58=PLANE('',#962);
#59=PLANE('',#963);
#60=PLANE('',#964);
#61=PLANE('',#965);
#62=FACE_OUTER_BOUND('',#106,.T.);
#63=FACE_OUTER_BOUND('',#107,.T.);
#64=FACE_OUTER_BOUND('',#108,.T.);
#65=FACE_OUTER_BOUND('',#109,.T.);
#66=FACE_OUTER_BOUND('',#110,.T.);
#67=FACE_OUTER_BOUND('',#111,.T.);
#68=FACE_OUTER_BOUND('',#112,.T.);
#69=FACE_OUTER_BOUND('',#113,.T.);
#70=FACE_OUTER_BOUND('',#116,.T.);
#71=FACE_OUTER_BOUND('',#117,.T.);
#72=FACE_OUTER_BOUND('',#118,.T.);
#73=FACE_OUTER_BOUND('',#119,.T.);
#74=FACE_OUTER_BOUND('',#120,.T.);
#75=FACE_OUTER_BOUND('',#121,.T.);
#76=FACE_OUTER_BOUND('',#122,.T.);
#77=FACE_OUTER_BOUND('',#123,.T.);
#78=FACE_OUTER_BOUND('',#124,.T.);
#79=FACE_OUTER_BOUND('',#125,.T.);
#80=FACE_OUTER_BOUND('',#126,.T.);
#81=FACE_OUTER_BOUND('',#127,.T.);
#82=FACE_OUTER_BOUND('',#128,.T.);
#83=FACE_OUTER_BOUND('',#129,.T.);
#84=FACE_OUTER_BOUND('',#130,.T.);
#85=FACE_OUTER_BOUND('',#131,.T.);
#86=FACE_OUTER_BOUND('',#132,.T.);
#87=FACE_OUTER_BOUND('',#133,.T.);
#88=FACE_OUTER_BOUND('',#134,.T.);
#89=FACE_OUTER_BOUND('',#135,.T.);
#90=FACE_OUTER_BOUND('',#136,.T.);
#91=FACE_OUTER_BOUND('',#137,.T.);
#92=FACE_OUTER_BOUND('',#138,.T.);
#93=FACE_OUTER_BOUND('',#139,.T.);
#94=FACE_OUTER_BOUND('',#140,.T.);
#95=FACE_OUTER_BOUND('',#141,.T.);
#96=FACE_OUTER_BOUND('',#142,.T.);
#97=FACE_OUTER_BOUND('',#143,.T.);
#98=FACE_OUTER_BOUND('',#144,.T.);
#99=FACE_OUTER_BOUND('',#145,.T.);
#100=FACE_OUTER_BOUND('',#146,.T.);
#101=FACE_OUTER_BOUND('',#147,.T.);
#102=FACE_OUTER_BOUND('',#148,.T.);
#103=FACE_OUTER_BOUND('',#149,.T.);
#104=FACE_OUTER_BOUND('',#150,.T.);
#105=FACE_OUTER_BOUND('',#152,.T.);
#106=EDGE_LOOP('',(#608,#609,#610,#611));
#107=EDGE_LOOP('',(#612,#613,#614,#615));
#108=EDGE_LOOP('',(#616,#617,#618,#619));
#109=EDGE_LOOP('',(#620,#621,#622,#623,#624,#625));
#110=EDGE_LOOP('',(#626,#627,#628,#629));
#111=EDGE_LOOP('',(#630,#631,#632,#633,#634,#635));
#112=EDGE_LOOP('',(#636,#637,#638,#639));
#113=EDGE_LOOP('',(#640,#641,#642,#643,#644,#645,#646,#647,#648,#649,#650,
#651));
#114=EDGE_LOOP('',(#652));
#115=EDGE_LOOP('',(#653));
#116=EDGE_LOOP('',(#654,#655,#656,#657));
#117=EDGE_LOOP('',(#658,#659,#660,#661));
#118=EDGE_LOOP('',(#662,#663,#664,#665));
#119=EDGE_LOOP('',(#666,#667,#668,#669));
#120=EDGE_LOOP('',(#670,#671,#672,#673,#674,#675));
#121=EDGE_LOOP('',(#676,#677,#678,#679,#680,#681,#682,#683,#684,#685));
#122=EDGE_LOOP('',(#686,#687,#688,#689));
#123=EDGE_LOOP('',(#690,#691,#692,#693));
#124=EDGE_LOOP('',(#694,#695,#696,#697));
#125=EDGE_LOOP('',(#698,#699,#700,#701,#702,#703,#704,#705,#706));
#126=EDGE_LOOP('',(#707,#708,#709,#710));
#127=EDGE_LOOP('',(#711,#712,#713,#714));
#128=EDGE_LOOP('',(#715,#716,#717,#718));
#129=EDGE_LOOP('',(#719,#720,#721,#722));
#130=EDGE_LOOP('',(#723,#724,#725,#726));
#131=EDGE_LOOP('',(#727,#728,#729,#730));
#132=EDGE_LOOP('',(#731,#732,#733,#734));
#133=EDGE_LOOP('',(#735,#736,#737,#738));
#134=EDGE_LOOP('',(#739,#740,#741,#742));
#135=EDGE_LOOP('',(#743,#744,#745,#746,#747,#748,#749,#750));
#136=EDGE_LOOP('',(#751,#752,#753,#754,#755,#756));
#137=EDGE_LOOP('',(#757,#758,#759,#760,#761,#762,#763,#764,#765));
#138=EDGE_LOOP('',(#766,#767,#768,#769));
#139=EDGE_LOOP('',(#770,#771,#772,#773));
#140=EDGE_LOOP('',(#774,#775,#776,#777,#778,#779,#780,#781,#782,#783));
#141=EDGE_LOOP('',(#784,#785,#786,#787));
#142=EDGE_LOOP('',(#788,#789,#790,#791));
#143=EDGE_LOOP('',(#792,#793,#794,#795));
#144=EDGE_LOOP('',(#796,#797,#798,#799));
#145=EDGE_LOOP('',(#800,#801,#802,#803));
#146=EDGE_LOOP('',(#804,#805,#806,#807,#808,#809,#810,#811));
#147=EDGE_LOOP('',(#812,#813,#814,#815,#816,#817));
#148=EDGE_LOOP('',(#818,#819,#820,#821,#822,#823,#824,#825,#826,#827));
#149=EDGE_LOOP('',(#828,#829,#830,#831));
#150=EDGE_LOOP('',(#832,#833,#834,#835));
#151=EDGE_LOOP('',(#836,#837,#838,#839));
#152=EDGE_LOOP('',(#840,#841,#842,#843,#844,#845,#846,#847,#848,#849,#850,
#851,#852,#853,#854,#855));
#153=EDGE_LOOP('',(#856));
#154=EDGE_LOOP('',(#857));
#155=LINE('',#1190,#276);
#156=LINE('',#1196,#277);
#157=LINE('',#1201,#278);
#158=LINE('',#1203,#279);
#159=LINE('',#1205,#280);
#160=LINE('',#1206,#281);
#161=LINE('',#1209,#282);
#162=LINE('',#1211,#283);
#163=LINE('',#1213,#284);
#164=LINE('',#1215,#285);
#165=LINE('',#1216,#286);
#166=LINE('',#1219,#287);
#167=LINE('',#1221,#288);
#168=LINE('',#1222,#289);
#169=LINE('',#1225,#290);
#170=LINE('',#1226,#291);
#171=LINE('',#1228,#292);
#172=LINE('',#1229,#293);
#173=LINE('',#1231,#294);
#174=LINE('',#1234,#295);
#175=LINE('',#1236,#296);
#176=LINE('',#1238,#297);
#177=LINE('',#1240,#298);
#178=LINE('',#1242,#299);
#179=LINE('',#1244,#300);
#180=LINE('',#1246,#301);
#181=LINE('',#1248,#302);
#182=LINE('',#1249,#303);
#183=LINE('',#1253,#304);
#184=LINE('',#1255,#305);
#185=LINE('',#1257,#306);
#186=LINE('',#1258,#307);
#187=LINE('',#1262,#308);
#188=LINE('',#1264,#309);
#189=LINE('',#1266,#310);
#190=LINE('',#1267,#311);
#191=LINE('',#1270,#312);
#192=LINE('',#1272,#313);
#193=LINE('',#1273,#314);
#194=LINE('',#1275,#315);
#195=LINE('',#1276,#316);
#196=LINE('',#1280,#317);
#197=LINE('',#1282,#318);
#198=LINE('',#1284,#319);
#199=LINE('',#1286,#320);
#200=LINE('',#1288,#321);
#201=LINE('',#1289,#322);
#202=LINE('',#1292,#323);
#203=LINE('',#1294,#324);
#204=LINE('',#1296,#325);
#205=LINE('',#1298,#326);
#206=LINE('',#1299,#327);
#207=LINE('',#1300,#328);
#208=LINE('',#1304,#329);
#209=LINE('',#1306,#330);
#210=LINE('',#1308,#331);
#211=LINE('',#1309,#332);
#212=LINE('',#1312,#333);
#213=LINE('',#1314,#334);
#214=LINE('',#1315,#335);
#215=LINE('',#1318,#336);
#216=LINE('',#1320,#337);
#217=LINE('',#1321,#338);
#218=LINE('',#1323,#339);
#219=LINE('',#1325,#340);
#220=LINE('',#1327,#341);
#221=LINE('',#1329,#342);
#222=LINE('',#1331,#343);
#223=LINE('',#1332,#344);
#224=LINE('',#1335,#345);
#225=LINE('',#1336,#346);
#226=LINE('',#1338,#347);
#227=LINE('',#1341,#348);
#228=LINE('',#1342,#349);
#229=LINE('',#1344,#350);
#230=LINE('',#1347,#351);
#231=LINE('',#1348,#352);
#232=LINE('',#1351,#353);
#233=LINE('',#1352,#354);
#234=LINE('',#1356,#355);
#235=LINE('',#1358,#356);
#236=LINE('',#1360,#357);
#237=LINE('',#1361,#358);
#238=LINE('',#1364,#359);
#239=LINE('',#1366,#360);
#240=LINE('',#1367,#361);
#241=LINE('',#1369,#362);
#242=LINE('',#1370,#363);
#243=LINE('',#1373,#364);
#244=LINE('',#1375,#365);
#245=LINE('',#1377,#366);
#246=LINE('',#1378,#367);
#247=LINE('',#1381,#368);
#248=LINE('',#1383,#369);
#249=LINE('',#1385,#370);
#250=LINE('',#1386,#371);
#251=LINE('',#1389,#372);
#252=LINE('',#1391,#373);
#253=LINE('',#1392,#374);
#254=LINE('',#1394,#375);
#255=LINE('',#1397,#376);
#256=LINE('',#1398,#377);
#257=LINE('',#1401,#378);
#258=LINE('',#1403,#379);
#259=LINE('',#1404,#380);
#260=LINE('',#1406,#381);
#261=LINE('',#1409,#382);
#262=LINE('',#1410,#383);
#263=LINE('',#1412,#384);
#264=LINE('',#1415,#385);
#265=LINE('',#1417,#386);
#266=LINE('',#1418,#387);
#267=LINE('',#1421,#388);
#268=LINE('',#1423,#389);
#269=LINE('',#1424,#390);
#270=LINE('',#1426,#391);
#271=LINE('',#1427,#392);
#272=LINE('',#1429,#393);
#273=LINE('',#1431,#394);
#274=LINE('',#1433,#395);
#275=LINE('',#1435,#396);
#276=VECTOR('',#972,1.4);
#277=VECTOR('',#979,1.4);
#278=VECTOR('',#984,10.);
#279=VECTOR('',#985,10.);
#280=VECTOR('',#986,10.);
#281=VECTOR('',#987,10.);
#282=VECTOR('',#990,10.);
#283=VECTOR('',#991,10.);
#284=VECTOR('',#992,10.);
#285=VECTOR('',#993,10.);
#286=VECTOR('',#994,10.);
#287=VECTOR('',#997,10.);
#288=VECTOR('',#998,10.);
#289=VECTOR('',#999,10.);
#290=VECTOR('',#1002,10.);
#291=VECTOR('',#1003,10.);
#292=VECTOR('',#1004,10.);
#293=VECTOR('',#1005,10.);
#294=VECTOR('',#1008,10.);
#295=VECTOR('',#1011,10.);
#296=VECTOR('',#1012,10.);
#297=VECTOR('',#1013,10.);
#298=VECTOR('',#1014,10.);
#299=VECTOR('',#1015,10.);
#300=VECTOR('',#1016,10.);
#301=VECTOR('',#1017,10.);
#302=VECTOR('',#1018,10.);
#303=VECTOR('',#1019,10.);
#304=VECTOR('',#1022,10.);
#305=VECTOR('',#1023,10.);
#306=VECTOR('',#1024,10.);
#307=VECTOR('',#1025,10.);
#308=VECTOR('',#1028,10.);
#309=VECTOR('',#1029,10.);
#310=VECTOR('',#1030,10.);
#311=VECTOR('',#1031,10.);
#312=VECTOR('',#1034,10.);
#313=VECTOR('',#1035,10.);
#314=VECTOR('',#1036,10.);
#315=VECTOR('',#1039,10.);
#316=VECTOR('',#1040,10.);
#317=VECTOR('',#1043,10.);
#318=VECTOR('',#1044,10.);
#319=VECTOR('',#1045,10.);
#320=VECTOR('',#1046,10.);
#321=VECTOR('',#1047,10.);
#322=VECTOR('',#1048,10.);
#323=VECTOR('',#1051,10.);
#324=VECTOR('',#1052,10.);
#325=VECTOR('',#1053,10.);
#326=VECTOR('',#1054,10.);
#327=VECTOR('',#1055,10.);
#328=VECTOR('',#1056,10.);
#329=VECTOR('',#1059,10.);
#330=VECTOR('',#1060,10.);
#331=VECTOR('',#1061,10.);
#332=VECTOR('',#1062,10.);
#333=VECTOR('',#1065,10.);
#334=VECTOR('',#1066,10.);
#335=VECTOR('',#1067,10.);
#336=VECTOR('',#1070,10.);
#337=VECTOR('',#1071,10.);
#338=VECTOR('',#1072,10.);
#339=VECTOR('',#1075,10.);
#340=VECTOR('',#1076,10.);
#341=VECTOR('',#1077,10.);
#342=VECTOR('',#1078,10.);
#343=VECTOR('',#1079,10.);
#344=VECTOR('',#1080,10.);
#345=VECTOR('',#1083,10.);
#346=VECTOR('',#1084,10.);
#347=VECTOR('',#1087,10.);
#348=VECTOR('',#1090,10.);
#349=VECTOR('',#1091,10.);
#350=VECTOR('',#1094,10.);
#351=VECTOR('',#1097,10.);
#352=VECTOR('',#1098,10.);
#353=VECTOR('',#1101,10.);
#354=VECTOR('',#1102,10.);
#355=VECTOR('',#1105,10.);
#356=VECTOR('',#1106,10.);
#357=VECTOR('',#1107,10.);
#358=VECTOR('',#1108,10.);
#359=VECTOR('',#1111,10.);
#360=VECTOR('',#1112,10.);
#361=VECTOR('',#1113,10.);
#362=VECTOR('',#1116,10.);
#363=VECTOR('',#1117,10.);
#364=VECTOR('',#1120,10.);
#365=VECTOR('',#1121,10.);
#366=VECTOR('',#1122,10.);
#367=VECTOR('',#1123,10.);
#368=VECTOR('',#1126,10.);
#369=VECTOR('',#1127,10.);
#370=VECTOR('',#1128,10.);
#371=VECTOR('',#1129,10.);
#372=VECTOR('',#1132,10.);
#373=VECTOR('',#1133,10.);
#374=VECTOR('',#1134,10.);
#375=VECTOR('',#1137,10.);
#376=VECTOR('',#1140,10.);
#377=VECTOR('',#1141,10.);
#378=VECTOR('',#1144,10.);
#379=VECTOR('',#1145,10.);
#380=VECTOR('',#1146,10.);
#381=VECTOR('',#1149,10.);
#382=VECTOR('',#1152,10.);
#383=VECTOR('',#1153,10.);
#384=VECTOR('',#1156,10.);
#385=VECTOR('',#1159,10.);
#386=VECTOR('',#1160,10.);
#387=VECTOR('',#1161,10.);
#388=VECTOR('',#1164,10.);
#389=VECTOR('',#1165,10.);
#390=VECTOR('',#1166,10.);
#391=VECTOR('',#1169,10.);
#392=VECTOR('',#1170,10.);
#393=VECTOR('',#1173,10.);
#394=VECTOR('',#1176,10.);
#395=VECTOR('',#1179,10.);
#396=VECTOR('',#1182,10.);
#397=CIRCLE('',#919,1.4);
#398=CIRCLE('',#920,1.4);
#399=CIRCLE('',#922,1.4);
#400=CIRCLE('',#923,1.4);
#401=VERTEX_POINT('',#1187);
#402=VERTEX_POINT('',#1189);
#403=VERTEX_POINT('',#1193);
#404=VERTEX_POINT('',#1195);
#405=VERTEX_POINT('',#1199);
#406=VERTEX_POINT('',#1200);
#407=VERTEX_POINT('',#1202);
#408=VERTEX_POINT('',#1204);
#409=VERTEX_POINT('',#1208);
#410=VERTEX_POINT('',#1210);
#411=VERTEX_POINT('',#1212);
#412=VERTEX_POINT('',#1214);
#413=VERTEX_POINT('',#1218);
#414=VERTEX_POINT('',#1220);
#415=VERTEX_POINT('',#1224);
#416=VERTEX_POINT('',#1227);
#417=VERTEX_POINT('',#1233);
#418=VERTEX_POINT('',#1235);
#419=VERTEX_POINT('',#1237);
#420=VERTEX_POINT('',#1239);
#421=VERTEX_POINT('',#1241);
#422=VERTEX_POINT('',#1243);
#423=VERTEX_POINT('',#1245);
#424=VERTEX_POINT('',#1247);
#425=VERTEX_POINT('',#1251);
#426=VERTEX_POINT('',#1252);
#427=VERTEX_POINT('',#1254);
#428=VERTEX_POINT('',#1256);
#429=VERTEX_POINT('',#1260);
#430=VERTEX_POINT('',#1261);
#431=VERTEX_POINT('',#1263);
#432=VERTEX_POINT('',#1265);
#433=VERTEX_POINT('',#1269);
#434=VERTEX_POINT('',#1271);
#435=VERTEX_POINT('',#1278);
#436=VERTEX_POINT('',#1279);
#437=VERTEX_POINT('',#1281);
#438=VERTEX_POINT('',#1283);
#439=VERTEX_POINT('',#1285);
#440=VERTEX_POINT('',#1287);
#441=VERTEX_POINT('',#1291);
#442=VERTEX_POINT('',#1293);
#443=VERTEX_POINT('',#1295);
#444=VERTEX_POINT('',#1297);
#445=VERTEX_POINT('',#1302);
#446=VERTEX_POINT('',#1303);
#447=VERTEX_POINT('',#1305);
#448=VERTEX_POINT('',#1307);
#449=VERTEX_POINT('',#1311);
#450=VERTEX_POINT('',#1313);
#451=VERTEX_POINT('',#1317);
#452=VERTEX_POINT('',#1319);
#453=VERTEX_POINT('',#1324);
#454=VERTEX_POINT('',#1326);
#455=VERTEX_POINT('',#1328);
#456=VERTEX_POINT('',#1330);
#457=VERTEX_POINT('',#1334);
#458=VERTEX_POINT('',#1340);
#459=VERTEX_POINT('',#1346);
#460=VERTEX_POINT('',#1350);
#461=VERTEX_POINT('',#1354);
#462=VERTEX_POINT('',#1355);
#463=VERTEX_POINT('',#1357);
#464=VERTEX_POINT('',#1359);
#465=VERTEX_POINT('',#1363);
#466=VERTEX_POINT('',#1365);
#467=VERTEX_POINT('',#1372);
#468=VERTEX_POINT('',#1374);
#469=VERTEX_POINT('',#1376);
#470=VERTEX_POINT('',#1380);
#471=VERTEX_POINT('',#1382);
#472=VERTEX_POINT('',#1384);
#473=VERTEX_POINT('',#1388);
#474=VERTEX_POINT('',#1390);
#475=VERTEX_POINT('',#1396);
#476=VERTEX_POINT('',#1400);
#477=VERTEX_POINT('',#1402);
#478=VERTEX_POINT('',#1408);
#479=VERTEX_POINT('',#1414);
#480=VERTEX_POINT('',#1416);
#481=VERTEX_POINT('',#1420);
#482=VERTEX_POINT('',#1422);
#483=EDGE_CURVE('',#401,#401,#397,.T.);
#484=EDGE_CURVE('',#401,#402,#155,.T.);
#485=EDGE_CURVE('',#402,#402,#398,.T.);
#486=EDGE_CURVE('',#403,#403,#399,.T.);
#487=EDGE_CURVE('',#403,#404,#156,.T.);
#488=EDGE_CURVE('',#404,#404,#400,.T.);
#489=EDGE_CURVE('',#405,#406,#157,.T.);
#490=EDGE_CURVE('',#407,#405,#158,.T.);
#491=EDGE_CURVE('',#408,#407,#159,.T.);
#492=EDGE_CURVE('',#406,#408,#160,.T.);
#493=EDGE_CURVE('',#406,#409,#161,.T.);
#494=EDGE_CURVE('',#410,#408,#162,.T.);
#495=EDGE_CURVE('',#411,#410,#163,.T.);
#496=EDGE_CURVE('',#411,#412,#164,.T.);
#497=EDGE_CURVE('',#409,#412,#165,.T.);
#498=EDGE_CURVE('',#412,#413,#166,.T.);
#499=EDGE_CURVE('',#414,#411,#167,.T.);
#500=EDGE_CURVE('',#414,#413,#168,.T.);
#501=EDGE_CURVE('',#415,#405,#169,.T.);
#502=EDGE_CURVE('',#413,#415,#170,.T.);
#503=EDGE_CURVE('',#416,#414,#171,.T.);
#504=EDGE_CURVE('',#416,#407,#172,.T.);
#505=EDGE_CURVE('',#410,#416,#173,.T.);
#506=EDGE_CURVE('',#409,#417,#174,.T.);
#507=EDGE_CURVE('',#417,#418,#175,.T.);
#508=EDGE_CURVE('',#418,#419,#176,.T.);
#509=EDGE_CURVE('',#419,#420,#177,.T.);
#510=EDGE_CURVE('',#420,#421,#178,.T.);
#511=EDGE_CURVE('',#421,#422,#179,.T.);
#512=EDGE_CURVE('',#422,#423,#180,.T.);
#513=EDGE_CURVE('',#423,#424,#181,.T.);
#514=EDGE_CURVE('',#424,#415,#182,.T.);
#515=EDGE_CURVE('',#425,#426,#183,.T.);
#516=EDGE_CURVE('',#427,#425,#184,.T.);
#517=EDGE_CURVE('',#428,#427,#185,.T.);
#518=EDGE_CURVE('',#426,#428,#186,.T.);
#519=EDGE_CURVE('',#429,#430,#187,.T.);
#520=EDGE_CURVE('',#431,#429,#188,.T.);
#521=EDGE_CURVE('',#432,#431,#189,.T.);
#522=EDGE_CURVE('',#432,#430,#190,.T.);
#523=EDGE_CURVE('',#433,#425,#191,.T.);
#524=EDGE_CURVE('',#434,#433,#192,.T.);
#525=EDGE_CURVE('',#427,#434,#193,.T.);
#526=EDGE_CURVE('',#430,#433,#194,.T.);
#527=EDGE_CURVE('',#434,#432,#195,.T.);
#528=EDGE_CURVE('',#435,#436,#196,.T.);
#529=EDGE_CURVE('',#436,#437,#197,.T.);
#530=EDGE_CURVE('',#437,#438,#198,.T.);
#531=EDGE_CURVE('',#438,#439,#199,.T.);
#532=EDGE_CURVE('',#439,#440,#200,.T.);
#533=EDGE_CURVE('',#440,#435,#201,.T.);
#534=EDGE_CURVE('',#441,#431,#202,.T.);
#535=EDGE_CURVE('',#442,#441,#203,.T.);
#536=EDGE_CURVE('',#443,#442,#204,.T.);
#537=EDGE_CURVE('',#444,#443,#205,.T.);
#538=EDGE_CURVE('',#419,#444,#206,.T.);
#539=EDGE_CURVE('',#419,#428,#207,.T.);
#540=EDGE_CURVE('',#445,#446,#208,.T.);
#541=EDGE_CURVE('',#447,#445,#209,.T.);
#542=EDGE_CURVE('',#448,#447,#210,.T.);
#543=EDGE_CURVE('',#448,#446,#211,.T.);
#544=EDGE_CURVE('',#446,#449,#212,.T.);
#545=EDGE_CURVE('',#450,#448,#213,.T.);
#546=EDGE_CURVE('',#450,#449,#214,.T.);
#547=EDGE_CURVE('',#449,#451,#215,.T.);
#548=EDGE_CURVE('',#452,#450,#216,.T.);
#549=EDGE_CURVE('',#452,#451,#217,.T.);
#550=EDGE_CURVE('',#421,#452,#218,.T.);
#551=EDGE_CURVE('',#453,#447,#219,.T.);
#552=EDGE_CURVE('',#454,#453,#220,.T.);
#553=EDGE_CURVE('',#455,#454,#221,.T.);
#554=EDGE_CURVE('',#456,#455,#222,.T.);
#555=EDGE_CURVE('',#421,#456,#223,.T.);
#556=EDGE_CURVE('',#429,#457,#224,.T.);
#557=EDGE_CURVE('',#457,#441,#225,.T.);
#558=EDGE_CURVE('',#418,#426,#226,.T.);
#559=EDGE_CURVE('',#445,#458,#227,.T.);
#560=EDGE_CURVE('',#458,#453,#228,.T.);
#561=EDGE_CURVE('',#420,#451,#229,.T.);
#562=EDGE_CURVE('',#459,#457,#230,.T.);
#563=EDGE_CURVE('',#459,#442,#231,.T.);
#564=EDGE_CURVE('',#460,#458,#232,.T.);
#565=EDGE_CURVE('',#460,#454,#233,.T.);
#566=EDGE_CURVE('',#461,#462,#234,.T.);
#567=EDGE_CURVE('',#463,#461,#235,.T.);
#568=EDGE_CURVE('',#464,#463,#236,.T.);
#569=EDGE_CURVE('',#462,#464,#237,.T.);
#570=EDGE_CURVE('',#465,#437,#238,.T.);
#571=EDGE_CURVE('',#465,#466,#239,.T.);
#572=EDGE_CURVE('',#438,#466,#240,.T.);
#573=EDGE_CURVE('',#462,#465,#241,.T.);
#574=EDGE_CURVE('',#466,#464,#242,.T.);
#575=EDGE_CURVE('',#467,#463,#243,.T.);
#576=EDGE_CURVE('',#468,#467,#244,.T.);
#577=EDGE_CURVE('',#469,#468,#245,.T.);
#578=EDGE_CURVE('',#469,#439,#246,.T.);
#579=EDGE_CURVE('',#461,#470,#247,.T.);
#580=EDGE_CURVE('',#470,#471,#248,.T.);
#581=EDGE_CURVE('',#471,#472,#249,.T.);
#582=EDGE_CURVE('',#472,#467,#250,.T.);
#583=EDGE_CURVE('',#473,#420,#251,.T.);
#584=EDGE_CURVE('',#473,#474,#252,.T.);
#585=EDGE_CURVE('',#474,#460,#253,.T.);
#586=EDGE_CURVE('',#474,#455,#254,.T.);
#587=EDGE_CURVE('',#475,#456,#255,.T.);
#588=EDGE_CURVE('',#422,#475,#256,.T.);
#589=EDGE_CURVE('',#476,#418,#257,.T.);
#590=EDGE_CURVE('',#476,#477,#258,.T.);
#591=EDGE_CURVE('',#477,#459,#259,.T.);
#592=EDGE_CURVE('',#477,#443,#260,.T.);
#593=EDGE_CURVE('',#478,#417,#261,.T.);
#594=EDGE_CURVE('',#476,#478,#262,.T.);
#595=EDGE_CURVE('',#473,#444,#263,.T.);
#596=EDGE_CURVE('',#471,#479,#264,.T.);
#597=EDGE_CURVE('',#480,#479,#265,.T.);
#598=EDGE_CURVE('',#480,#472,#266,.T.);
#599=EDGE_CURVE('',#481,#435,#267,.T.);
#600=EDGE_CURVE('',#482,#440,#268,.T.);
#601=EDGE_CURVE('',#481,#482,#269,.T.);
#602=EDGE_CURVE('',#424,#436,#270,.T.);
#603=EDGE_CURVE('',#423,#470,#271,.F.);
#604=EDGE_CURVE('',#479,#475,#272,.T.);
#605=EDGE_CURVE('',#478,#481,#273,.T.);
#606=EDGE_CURVE('',#468,#480,#274,.T.);
#607=EDGE_CURVE('',#482,#469,#275,.T.);
#608=ORIENTED_EDGE('',*,*,#483,.F.);
#609=ORIENTED_EDGE('',*,*,#484,.T.);
#610=ORIENTED_EDGE('',*,*,#485,.F.);
#611=ORIENTED_EDGE('',*,*,#484,.F.);
#612=ORIENTED_EDGE('',*,*,#486,.F.);
#613=ORIENTED_EDGE('',*,*,#487,.T.);
#614=ORIENTED_EDGE('',*,*,#488,.F.);
#615=ORIENTED_EDGE('',*,*,#487,.F.);
#616=ORIENTED_EDGE('',*,*,#489,.F.);
#617=ORIENTED_EDGE('',*,*,#490,.F.);
#618=ORIENTED_EDGE('',*,*,#491,.F.);
#619=ORIENTED_EDGE('',*,*,#492,.F.);
#620=ORIENTED_EDGE('',*,*,#493,.F.);
#621=ORIENTED_EDGE('',*,*,#492,.T.);
#622=ORIENTED_EDGE('',*,*,#494,.F.);
#623=ORIENTED_EDGE('',*,*,#495,.F.);
#624=ORIENTED_EDGE('',*,*,#496,.T.);
#625=ORIENTED_EDGE('',*,*,#497,.F.);
#626=ORIENTED_EDGE('',*,*,#498,.F.);
#627=ORIENTED_EDGE('',*,*,#496,.F.);
#628=ORIENTED_EDGE('',*,*,#499,.F.);
#629=ORIENTED_EDGE('',*,*,#500,.T.);
#630=ORIENTED_EDGE('',*,*,#501,.F.);
#631=ORIENTED_EDGE('',*,*,#502,.F.);
#632=ORIENTED_EDGE('',*,*,#500,.F.);
#633=ORIENTED_EDGE('',*,*,#503,.F.);
#634=ORIENTED_EDGE('',*,*,#504,.T.);
#635=ORIENTED_EDGE('',*,*,#490,.T.);
#636=ORIENTED_EDGE('',*,*,#505,.F.);
#637=ORIENTED_EDGE('',*,*,#494,.T.);
#638=ORIENTED_EDGE('',*,*,#491,.T.);
#639=ORIENTED_EDGE('',*,*,#504,.F.);
#640=ORIENTED_EDGE('',*,*,#501,.T.);
#641=ORIENTED_EDGE('',*,*,#489,.T.);
#642=ORIENTED_EDGE('',*,*,#493,.T.);
#643=ORIENTED_EDGE('',*,*,#506,.T.);
#644=ORIENTED_EDGE('',*,*,#507,.T.);
#645=ORIENTED_EDGE('',*,*,#508,.T.);
#646=ORIENTED_EDGE('',*,*,#509,.T.);
#647=ORIENTED_EDGE('',*,*,#510,.T.);
#648=ORIENTED_EDGE('',*,*,#511,.T.);
#649=ORIENTED_EDGE('',*,*,#512,.T.);
#650=ORIENTED_EDGE('',*,*,#513,.T.);
#651=ORIENTED_EDGE('',*,*,#514,.T.);
#652=ORIENTED_EDGE('',*,*,#483,.T.);
#653=ORIENTED_EDGE('',*,*,#486,.T.);
#654=ORIENTED_EDGE('',*,*,#515,.F.);
#655=ORIENTED_EDGE('',*,*,#516,.F.);
#656=ORIENTED_EDGE('',*,*,#517,.F.);
#657=ORIENTED_EDGE('',*,*,#518,.F.);
#658=ORIENTED_EDGE('',*,*,#519,.F.);
#659=ORIENTED_EDGE('',*,*,#520,.F.);
#660=ORIENTED_EDGE('',*,*,#521,.F.);
#661=ORIENTED_EDGE('',*,*,#522,.T.);
#662=ORIENTED_EDGE('',*,*,#523,.F.);
#663=ORIENTED_EDGE('',*,*,#524,.F.);
#664=ORIENTED_EDGE('',*,*,#525,.F.);
#665=ORIENTED_EDGE('',*,*,#516,.T.);
#666=ORIENTED_EDGE('',*,*,#526,.F.);
#667=ORIENTED_EDGE('',*,*,#522,.F.);
#668=ORIENTED_EDGE('',*,*,#527,.F.);
#669=ORIENTED_EDGE('',*,*,#524,.T.);
#670=ORIENTED_EDGE('',*,*,#528,.T.);
#671=ORIENTED_EDGE('',*,*,#529,.T.);
#672=ORIENTED_EDGE('',*,*,#530,.T.);
#673=ORIENTED_EDGE('',*,*,#531,.T.);
#674=ORIENTED_EDGE('',*,*,#532,.T.);
#675=ORIENTED_EDGE('',*,*,#533,.T.);
#676=ORIENTED_EDGE('',*,*,#517,.T.);
#677=ORIENTED_EDGE('',*,*,#525,.T.);
#678=ORIENTED_EDGE('',*,*,#527,.T.);
#679=ORIENTED_EDGE('',*,*,#521,.T.);
#680=ORIENTED_EDGE('',*,*,#534,.F.);
#681=ORIENTED_EDGE('',*,*,#535,.F.);
#682=ORIENTED_EDGE('',*,*,#536,.F.);
#683=ORIENTED_EDGE('',*,*,#537,.F.);
#684=ORIENTED_EDGE('',*,*,#538,.F.);
#685=ORIENTED_EDGE('',*,*,#539,.T.);
#686=ORIENTED_EDGE('',*,*,#540,.F.);
#687=ORIENTED_EDGE('',*,*,#541,.F.);
#688=ORIENTED_EDGE('',*,*,#542,.F.);
#689=ORIENTED_EDGE('',*,*,#543,.T.);
#690=ORIENTED_EDGE('',*,*,#544,.F.);
#691=ORIENTED_EDGE('',*,*,#543,.F.);
#692=ORIENTED_EDGE('',*,*,#545,.F.);
#693=ORIENTED_EDGE('',*,*,#546,.T.);
#694=ORIENTED_EDGE('',*,*,#547,.F.);
#695=ORIENTED_EDGE('',*,*,#546,.F.);
#696=ORIENTED_EDGE('',*,*,#548,.F.);
#697=ORIENTED_EDGE('',*,*,#549,.T.);
#698=ORIENTED_EDGE('',*,*,#550,.T.);
#699=ORIENTED_EDGE('',*,*,#548,.T.);
#700=ORIENTED_EDGE('',*,*,#545,.T.);
#701=ORIENTED_EDGE('',*,*,#542,.T.);
#702=ORIENTED_EDGE('',*,*,#551,.F.);
#703=ORIENTED_EDGE('',*,*,#552,.F.);
#704=ORIENTED_EDGE('',*,*,#553,.F.);
#705=ORIENTED_EDGE('',*,*,#554,.F.);
#706=ORIENTED_EDGE('',*,*,#555,.F.);
#707=ORIENTED_EDGE('',*,*,#520,.T.);
#708=ORIENTED_EDGE('',*,*,#556,.T.);
#709=ORIENTED_EDGE('',*,*,#557,.T.);
#710=ORIENTED_EDGE('',*,*,#534,.T.);
#711=ORIENTED_EDGE('',*,*,#518,.T.);
#712=ORIENTED_EDGE('',*,*,#539,.F.);
#713=ORIENTED_EDGE('',*,*,#508,.F.);
#714=ORIENTED_EDGE('',*,*,#558,.T.);
#715=ORIENTED_EDGE('',*,*,#541,.T.);
#716=ORIENTED_EDGE('',*,*,#559,.T.);
#717=ORIENTED_EDGE('',*,*,#560,.T.);
#718=ORIENTED_EDGE('',*,*,#551,.T.);
#719=ORIENTED_EDGE('',*,*,#550,.F.);
#720=ORIENTED_EDGE('',*,*,#510,.F.);
#721=ORIENTED_EDGE('',*,*,#561,.T.);
#722=ORIENTED_EDGE('',*,*,#549,.F.);
#723=ORIENTED_EDGE('',*,*,#535,.T.);
#724=ORIENTED_EDGE('',*,*,#557,.F.);
#725=ORIENTED_EDGE('',*,*,#562,.F.);
#726=ORIENTED_EDGE('',*,*,#563,.T.);
#727=ORIENTED_EDGE('',*,*,#552,.T.);
#728=ORIENTED_EDGE('',*,*,#560,.F.);
#729=ORIENTED_EDGE('',*,*,#564,.F.);
#730=ORIENTED_EDGE('',*,*,#565,.T.);
#731=ORIENTED_EDGE('',*,*,#566,.F.);
#732=ORIENTED_EDGE('',*,*,#567,.F.);
#733=ORIENTED_EDGE('',*,*,#568,.F.);
#734=ORIENTED_EDGE('',*,*,#569,.F.);
#735=ORIENTED_EDGE('',*,*,#570,.F.);
#736=ORIENTED_EDGE('',*,*,#571,.T.);
#737=ORIENTED_EDGE('',*,*,#572,.F.);
#738=ORIENTED_EDGE('',*,*,#530,.F.);
#739=ORIENTED_EDGE('',*,*,#573,.F.);
#740=ORIENTED_EDGE('',*,*,#569,.T.);
#741=ORIENTED_EDGE('',*,*,#574,.F.);
#742=ORIENTED_EDGE('',*,*,#571,.F.);
#743=ORIENTED_EDGE('',*,*,#572,.T.);
#744=ORIENTED_EDGE('',*,*,#574,.T.);
#745=ORIENTED_EDGE('',*,*,#568,.T.);
#746=ORIENTED_EDGE('',*,*,#575,.F.);
#747=ORIENTED_EDGE('',*,*,#576,.F.);
#748=ORIENTED_EDGE('',*,*,#577,.F.);
#749=ORIENTED_EDGE('',*,*,#578,.T.);
#750=ORIENTED_EDGE('',*,*,#531,.F.);
#751=ORIENTED_EDGE('',*,*,#567,.T.);
#752=ORIENTED_EDGE('',*,*,#579,.T.);
#753=ORIENTED_EDGE('',*,*,#580,.T.);
#754=ORIENTED_EDGE('',*,*,#581,.T.);
#755=ORIENTED_EDGE('',*,*,#582,.T.);
#756=ORIENTED_EDGE('',*,*,#575,.T.);
#757=ORIENTED_EDGE('',*,*,#561,.F.);
#758=ORIENTED_EDGE('',*,*,#583,.F.);
#759=ORIENTED_EDGE('',*,*,#584,.T.);
#760=ORIENTED_EDGE('',*,*,#585,.T.);
#761=ORIENTED_EDGE('',*,*,#564,.T.);
#762=ORIENTED_EDGE('',*,*,#559,.F.);
#763=ORIENTED_EDGE('',*,*,#540,.T.);
#764=ORIENTED_EDGE('',*,*,#544,.T.);
#765=ORIENTED_EDGE('',*,*,#547,.T.);
#766=ORIENTED_EDGE('',*,*,#553,.T.);
#767=ORIENTED_EDGE('',*,*,#565,.F.);
#768=ORIENTED_EDGE('',*,*,#585,.F.);
#769=ORIENTED_EDGE('',*,*,#586,.T.);
#770=ORIENTED_EDGE('',*,*,#555,.T.);
#771=ORIENTED_EDGE('',*,*,#587,.F.);
#772=ORIENTED_EDGE('',*,*,#588,.F.);
#773=ORIENTED_EDGE('',*,*,#511,.F.);
#774=ORIENTED_EDGE('',*,*,#515,.T.);
#775=ORIENTED_EDGE('',*,*,#558,.F.);
#776=ORIENTED_EDGE('',*,*,#589,.F.);
#777=ORIENTED_EDGE('',*,*,#590,.T.);
#778=ORIENTED_EDGE('',*,*,#591,.T.);
#779=ORIENTED_EDGE('',*,*,#562,.T.);
#780=ORIENTED_EDGE('',*,*,#556,.F.);
#781=ORIENTED_EDGE('',*,*,#519,.T.);
#782=ORIENTED_EDGE('',*,*,#526,.T.);
#783=ORIENTED_EDGE('',*,*,#523,.T.);
#784=ORIENTED_EDGE('',*,*,#592,.T.);
#785=ORIENTED_EDGE('',*,*,#536,.T.);
#786=ORIENTED_EDGE('',*,*,#563,.F.);
#787=ORIENTED_EDGE('',*,*,#591,.F.);
#788=ORIENTED_EDGE('',*,*,#589,.T.);
#789=ORIENTED_EDGE('',*,*,#507,.F.);
#790=ORIENTED_EDGE('',*,*,#593,.F.);
#791=ORIENTED_EDGE('',*,*,#594,.F.);
#792=ORIENTED_EDGE('',*,*,#583,.T.);
#793=ORIENTED_EDGE('',*,*,#509,.F.);
#794=ORIENTED_EDGE('',*,*,#538,.T.);
#795=ORIENTED_EDGE('',*,*,#595,.F.);
#796=ORIENTED_EDGE('',*,*,#596,.T.);
#797=ORIENTED_EDGE('',*,*,#597,.F.);
#798=ORIENTED_EDGE('',*,*,#598,.T.);
#799=ORIENTED_EDGE('',*,*,#581,.F.);
#800=ORIENTED_EDGE('',*,*,#599,.T.);
#801=ORIENTED_EDGE('',*,*,#533,.F.);
#802=ORIENTED_EDGE('',*,*,#600,.F.);
#803=ORIENTED_EDGE('',*,*,#601,.F.);
#804=ORIENTED_EDGE('',*,*,#570,.T.);
#805=ORIENTED_EDGE('',*,*,#529,.F.);
#806=ORIENTED_EDGE('',*,*,#602,.F.);
#807=ORIENTED_EDGE('',*,*,#513,.F.);
#808=ORIENTED_EDGE('',*,*,#603,.T.);
#809=ORIENTED_EDGE('',*,*,#579,.F.);
#810=ORIENTED_EDGE('',*,*,#566,.T.);
#811=ORIENTED_EDGE('',*,*,#573,.T.);
#812=ORIENTED_EDGE('',*,*,#512,.F.);
#813=ORIENTED_EDGE('',*,*,#588,.T.);
#814=ORIENTED_EDGE('',*,*,#604,.F.);
#815=ORIENTED_EDGE('',*,*,#596,.F.);
#816=ORIENTED_EDGE('',*,*,#580,.F.);
#817=ORIENTED_EDGE('',*,*,#603,.F.);
#818=ORIENTED_EDGE('',*,*,#502,.T.);
#819=ORIENTED_EDGE('',*,*,#514,.F.);
#820=ORIENTED_EDGE('',*,*,#602,.T.);
#821=ORIENTED_EDGE('',*,*,#528,.F.);
#822=ORIENTED_EDGE('',*,*,#599,.F.);
#823=ORIENTED_EDGE('',*,*,#605,.F.);
#824=ORIENTED_EDGE('',*,*,#593,.T.);
#825=ORIENTED_EDGE('',*,*,#506,.F.);
#826=ORIENTED_EDGE('',*,*,#497,.T.);
#827=ORIENTED_EDGE('',*,*,#498,.T.);
#828=ORIENTED_EDGE('',*,*,#606,.F.);
#829=ORIENTED_EDGE('',*,*,#576,.T.);
#830=ORIENTED_EDGE('',*,*,#582,.F.);
#831=ORIENTED_EDGE('',*,*,#598,.F.);
#832=ORIENTED_EDGE('',*,*,#607,.F.);
#833=ORIENTED_EDGE('',*,*,#600,.T.);
#834=ORIENTED_EDGE('',*,*,#532,.F.);
#835=ORIENTED_EDGE('',*,*,#578,.F.);
#836=ORIENTED_EDGE('',*,*,#495,.T.);
#837=ORIENTED_EDGE('',*,*,#505,.T.);
#838=ORIENTED_EDGE('',*,*,#503,.T.);
#839=ORIENTED_EDGE('',*,*,#499,.T.);
#840=ORIENTED_EDGE('',*,*,#605,.T.);
#841=ORIENTED_EDGE('',*,*,#601,.T.);
#842=ORIENTED_EDGE('',*,*,#607,.T.);
#843=ORIENTED_EDGE('',*,*,#577,.T.);
#844=ORIENTED_EDGE('',*,*,#606,.T.);
#845=ORIENTED_EDGE('',*,*,#597,.T.);
#846=ORIENTED_EDGE('',*,*,#604,.T.);
#847=ORIENTED_EDGE('',*,*,#587,.T.);
#848=ORIENTED_EDGE('',*,*,#554,.T.);
#849=ORIENTED_EDGE('',*,*,#586,.F.);
#850=ORIENTED_EDGE('',*,*,#584,.F.);
#851=ORIENTED_EDGE('',*,*,#595,.T.);
#852=ORIENTED_EDGE('',*,*,#537,.T.);
#853=ORIENTED_EDGE('',*,*,#592,.F.);
#854=ORIENTED_EDGE('',*,*,#590,.F.);
#855=ORIENTED_EDGE('',*,*,#594,.T.);
#856=ORIENTED_EDGE('',*,*,#485,.T.);
#857=ORIENTED_EDGE('',*,*,#488,.T.);
#858=CYLINDRICAL_SURFACE('',#918,1.4);
#859=CYLINDRICAL_SURFACE('',#921,1.4);
#860=ADVANCED_FACE('',(#62),#858,.F.);
#861=ADVANCED_FACE('',(#63),#859,.F.);
#862=ADVANCED_FACE('',(#64),#20,.F.);
#863=ADVANCED_FACE('',(#65),#21,.F.);
#864=ADVANCED_FACE('',(#66),#22,.F.);
#865=ADVANCED_FACE('',(#67),#23,.F.);
#866=ADVANCED_FACE('',(#68),#24,.F.);
#867=ADVANCED_FACE('',(#69,#15,#16),#25,.T.);
#868=ADVANCED_FACE('',(#70),#26,.F.);
#869=ADVANCED_FACE('',(#71),#27,.F.);
#870=ADVANCED_FACE('',(#72),#28,.F.);
#871=ADVANCED_FACE('',(#73),#29,.F.);
#872=ADVANCED_FACE('',(#74),#30,.T.);
#873=ADVANCED_FACE('',(#75),#31,.T.);
#874=ADVANCED_FACE('',(#76),#32,.F.);
#875=ADVANCED_FACE('',(#77),#33,.F.);
#876=ADVANCED_FACE('',(#78),#34,.F.);
#877=ADVANCED_FACE('',(#79),#35,.T.);
#878=ADVANCED_FACE('',(#80),#36,.T.);
#879=ADVANCED_FACE('',(#81),#37,.T.);
#880=ADVANCED_FACE('',(#82),#38,.T.);
#881=ADVANCED_FACE('',(#83),#39,.T.);
#882=ADVANCED_FACE('',(#84),#40,.T.);
#883=ADVANCED_FACE('',(#85),#41,.T.);
#884=ADVANCED_FACE('',(#86),#42,.F.);
#885=ADVANCED_FACE('',(#87),#43,.F.);
#886=ADVANCED_FACE('',(#88),#44,.F.);
#887=ADVANCED_FACE('',(#89),#45,.T.);
#888=ADVANCED_FACE('',(#90),#46,.T.);
#889=ADVANCED_FACE('',(#91),#47,.T.);
#890=ADVANCED_FACE('',(#92),#48,.T.);
#891=ADVANCED_FACE('',(#93),#49,.F.);
#892=ADVANCED_FACE('',(#94),#50,.T.);
#893=ADVANCED_FACE('',(#95),#51,.T.);
#894=ADVANCED_FACE('',(#96),#52,.F.);
#895=ADVANCED_FACE('',(#97),#53,.F.);
#896=ADVANCED_FACE('',(#98),#54,.T.);
#897=ADVANCED_FACE('',(#99),#55,.T.);
#898=ADVANCED_FACE('',(#100),#56,.F.);
#899=ADVANCED_FACE('',(#101),#57,.F.);
#900=ADVANCED_FACE('',(#102),#58,.F.);
#901=ADVANCED_FACE('',(#103),#59,.T.);
#902=ADVANCED_FACE('',(#104,#17),#60,.T.);
#903=ADVANCED_FACE('',(#105,#18,#19),#61,.F.);
#904=CLOSED_SHELL('',(#860,#861,#862,#863,#864,#865,#866,#867,#868,#869,
#870,#871,#872,#873,#874,#875,#876,#877,#878,#879,#880,#881,#882,#883,#884,
#885,#886,#887,#888,#889,#890,#891,#892,#893,#894,#895,#896,#897,#898,#899,
#900,#901,#902,#903));
#905=DERIVED_UNIT_ELEMENT(#907,1.);
#906=DERIVED_UNIT_ELEMENT(#1442,-3.);
#907=(
MASS_UNIT()
NAMED_UNIT(*)
SI_UNIT(.KILO.,.GRAM.)
);
#908=DERIVED_UNIT((#905,#906));
#909=MEASURE_REPRESENTATION_ITEM('density measure',
POSITIVE_RATIO_MEASURE(7850.),#908);
#910=PROPERTY_DEFINITION_REPRESENTATION(#915,#912);
#911=PROPERTY_DEFINITION_REPRESENTATION(#916,#913);
#912=REPRESENTATION('material name',(#914),#1439);
#913=REPRESENTATION('density',(#909),#1439);
#914=DESCRIPTIVE_REPRESENTATION_ITEM('Steel','Steel');
#915=PROPERTY_DEFINITION('material property','material name',#1449);
#916=PROPERTY_DEFINITION('material property','density of part',#1449);
#917=AXIS2_PLACEMENT_3D('',#1185,#966,#967);
#918=AXIS2_PLACEMENT_3D('',#1186,#968,#969);
#919=AXIS2_PLACEMENT_3D('',#1188,#970,#971);
#920=AXIS2_PLACEMENT_3D('',#1191,#973,#974);
#921=AXIS2_PLACEMENT_3D('',#1192,#975,#976);
#922=AXIS2_PLACEMENT_3D('',#1194,#977,#978);
#923=AXIS2_PLACEMENT_3D('',#1197,#980,#981);
#924=AXIS2_PLACEMENT_3D('',#1198,#982,#983);
#925=AXIS2_PLACEMENT_3D('',#1207,#988,#989);
#926=AXIS2_PLACEMENT_3D('',#1217,#995,#996);
#927=AXIS2_PLACEMENT_3D('',#1223,#1000,#1001);
#928=AXIS2_PLACEMENT_3D('',#1230,#1006,#1007);
#929=AXIS2_PLACEMENT_3D('',#1232,#1009,#1010);
#930=AXIS2_PLACEMENT_3D('',#1250,#1020,#1021);
#931=AXIS2_PLACEMENT_3D('',#1259,#1026,#1027);
#932=AXIS2_PLACEMENT_3D('',#1268,#1032,#1033);
#933=AXIS2_PLACEMENT_3D('',#1274,#1037,#1038);
#934=AXIS2_PLACEMENT_3D('',#1277,#1041,#1042);
#935=AXIS2_PLACEMENT_3D('',#1290,#1049,#1050);
#936=AXIS2_PLACEMENT_3D('',#1301,#1057,#1058);
#937=AXIS2_PLACEMENT_3D('',#1310,#1063,#1064);
#938=AXIS2_PLACEMENT_3D('',#1316,#1068,#1069);
#939=AXIS2_PLACEMENT_3D('',#1322,#1073,#1074);
#940=AXIS2_PLACEMENT_3D('',#1333,#1081,#1082);
#941=AXIS2_PLACEMENT_3D('',#1337,#1085,#1086);
#942=AXIS2_PLACEMENT_3D('',#1339,#1088,#1089);
#943=AXIS2_PLACEMENT_3D('',#1343,#1092,#1093);
#944=AXIS2_PLACEMENT_3D('',#1345,#1095,#1096);
#945=AXIS2_PLACEMENT_3D('',#1349,#1099,#1100);
#946=AXIS2_PLACEMENT_3D('',#1353,#1103,#1104);
#947=AXIS2_PLACEMENT_3D('',#1362,#1109,#1110);
#948=AXIS2_PLACEMENT_3D('',#1368,#1114,#1115);
#949=AXIS2_PLACEMENT_3D('',#1371,#1118,#1119);
#950=AXIS2_PLACEMENT_3D('',#1379,#1124,#1125);
#951=AXIS2_PLACEMENT_3D('',#1387,#1130,#1131);
#952=AXIS2_PLACEMENT_3D('',#1393,#1135,#1136);
#953=AXIS2_PLACEMENT_3D('',#1395,#1138,#1139);
#954=AXIS2_PLACEMENT_3D('',#1399,#1142,#1143);
#955=AXIS2_PLACEMENT_3D('',#1405,#1147,#1148);
#956=AXIS2_PLACEMENT_3D('',#1407,#1150,#1151);
#957=AXIS2_PLACEMENT_3D('',#1411,#1154,#1155);
#958=AXIS2_PLACEMENT_3D('',#1413,#1157,#1158);
#959=AXIS2_PLACEMENT_3D('',#1419,#1162,#1163);
#960=AXIS2_PLACEMENT_3D('',#1425,#1167,#1168);
#961=AXIS2_PLACEMENT_3D('',#1428,#1171,#1172);
#962=AXIS2_PLACEMENT_3D('',#1430,#1174,#1175);
#963=AXIS2_PLACEMENT_3D('',#1432,#1177,#1178);
#964=AXIS2_PLACEMENT_3D('',#1434,#1180,#1181);
#965=AXIS2_PLACEMENT_3D('',#1436,#1183,#1184);
#966=DIRECTION('axis',(0.,0.,1.));
#967=DIRECTION('refdir',(1.,0.,0.));
#968=DIRECTION('center_axis',(0.,0.,-1.));
#969=DIRECTION('ref_axis',(-1.,0.,0.));
#970=DIRECTION('center_axis',(0.,0.,-1.));
#971=DIRECTION('ref_axis',(-1.,0.,0.));
#972=DIRECTION('',(0.,0.,-1.));
#973=DIRECTION('center_axis',(0.,0.,1.));
#974=DIRECTION('ref_axis',(-1.,0.,0.));
#975=DIRECTION('center_axis',(0.,0.,-1.));
#976=DIRECTION('ref_axis',(-1.,0.,0.));
#977=DIRECTION('center_axis',(0.,0.,-1.));
#978=DIRECTION('ref_axis',(-1.,0.,0.));
#979=DIRECTION('',(0.,0.,-1.));
#980=DIRECTION('center_axis',(0.,0.,1.));
#981=DIRECTION('ref_axis',(-1.,0.,0.));
#982=DIRECTION('center_axis',(0.,1.,0.));
#983=DIRECTION('ref_axis',(0.,0.,1.));
#984=DIRECTION('',(1.,0.,0.));
#985=DIRECTION('',(0.,0.,1.));
#986=DIRECTION('',(-1.,0.,0.));
#987=DIRECTION('',(0.,0.,-1.));
#988=DIRECTION('center_axis',(1.,0.,0.));
#989=DIRECTION('ref_axis',(0.,0.,-1.));
#990=DIRECTION('',(0.,-1.,0.));
#991=DIRECTION('',(0.,1.,0.));
#992=DIRECTION('',(0.,0.,-1.));
#993=DIRECTION('',(0.,1.,0.));
#994=DIRECTION('',(0.,0.,1.));
#995=DIRECTION('center_axis',(0.,0.,1.));
#996=DIRECTION('ref_axis',(1.,0.,0.));
#997=DIRECTION('',(-1.,0.,0.));
#998=DIRECTION('',(1.,0.,0.));
#999=DIRECTION('',(0.,1.,0.));
#1000=DIRECTION('center_axis',(-1.,0.,0.));
#1001=DIRECTION('ref_axis',(0.,0.,1.));
#1002=DIRECTION('',(0.,1.,0.));
#1003=DIRECTION('',(0.,0.,-1.));
#1004=DIRECTION('',(0.,0.,1.));
#1005=DIRECTION('',(0.,1.,0.));
#1006=DIRECTION('center_axis',(0.,0.,-1.));
#1007=DIRECTION('ref_axis',(-1.,0.,0.));
#1008=DIRECTION('',(-1.,0.,0.));
#1009=DIRECTION('center_axis',(0.,0.,1.));
#1010=DIRECTION('ref_axis',(1.,0.,0.));
#1011=DIRECTION('',(1.,0.,0.));
#1012=DIRECTION('',(0.,1.,0.));
#1013=DIRECTION('',(0.,1.,0.));
#1014=DIRECTION('',(0.,1.,0.));
#1015=DIRECTION('',(0.,1.,0.));
#1016=DIRECTION('',(0.,1.,0.));
#1017=DIRECTION('',(-1.,0.,0.));
#1018=DIRECTION('',(0.,-1.,0.));
#1019=DIRECTION('',(1.,0.,0.));
#1020=DIRECTION('center_axis',(0.999999999999848,0.,5.51342965356518E-7));
#1021=DIRECTION('ref_axis',(-5.51342965356518E-7,0.,0.999999999999848));
#1022=DIRECTION('',(5.51342965356518E-7,0.,-0.999999999999848));
#1023=DIRECTION('',(0.,-1.,0.));
#1024=DIRECTION('',(-5.51342965356518E-7,0.,0.999999999999848));
#1025=DIRECTION('',(0.,1.,0.));
#1026=DIRECTION('center_axis',(0.707106781186548,0.,0.707106781186548));
#1027=DIRECTION('ref_axis',(-0.707106781186548,0.,0.707106781186548));
#1028=DIRECTION('',(0.707106781186547,0.,-0.707106781186547));
#1029=DIRECTION('',(0.,-1.,0.));
#1030=DIRECTION('',(-0.707106781186548,0.,0.707106781186548));
#1031=DIRECTION('',(0.,-1.,0.));
#1032=DIRECTION('center_axis',(0.,0.,1.));
#1033=DIRECTION('ref_axis',(-1.,0.,0.));
#1034=DIRECTION('',(1.,0.,0.));
#1035=DIRECTION('',(0.,-1.,0.));
#1036=DIRECTION('',(-1.,0.,0.));
#1037=DIRECTION('center_axis',(-1.,0.,0.));
#1038=DIRECTION('ref_axis',(0.,0.,-1.));
#1039=DIRECTION('',(0.,0.,1.));
#1040=DIRECTION('',(0.,0.,-1.));
#1041=DIRECTION('center_axis',(0.,0.,1.));
#1042=DIRECTION('ref_axis',(1.,0.,0.));
#1043=DIRECTION('',(-1.,0.,0.));
#1044=DIRECTION('',(0.,1.,0.));
#1045=DIRECTION('',(-1.,0.,0.));
#1046=DIRECTION('',(0.,-1.,0.));
#1047=DIRECTION('',(1.,0.,0.));
#1048=DIRECTION('',(0.,1.,0.));
#1049=DIRECTION('center_axis',(0.,1.,0.));
#1050=DIRECTION('ref_axis',(0.,0.,1.));
#1051=DIRECTION('',(0.,0.,-1.));
#1052=DIRECTION('',(-1.,0.,0.));
#1053=DIRECTION('',(0.,0.,1.));
#1054=DIRECTION('',(1.,0.,0.));
#1055=DIRECTION('',(0.,0.,-1.));
#1056=DIRECTION('',(0.,0.,1.));
#1057=DIRECTION('center_axis',(0.707106781186548,0.,0.707106781186548));
#1058=DIRECTION('ref_axis',(-0.707106781186548,0.,0.707106781186548));
#1059=DIRECTION('',(0.707106781186547,0.,-0.707106781186547));
#1060=DIRECTION('',(0.,-1.,0.));
#1061=DIRECTION('',(-0.707106781186548,0.,0.707106781186548));
#1062=DIRECTION('',(0.,-1.,0.));
#1063=DIRECTION('center_axis',(-1.,0.,0.));
#1064=DIRECTION('ref_axis',(0.,0.,-1.));
#1065=DIRECTION('',(0.,0.,1.));
#1066=DIRECTION('',(0.,0.,-1.));
#1067=DIRECTION('',(0.,-1.,0.));
#1068=DIRECTION('center_axis',(0.,0.,1.));
#1069=DIRECTION('ref_axis',(-1.,0.,0.));
#1070=DIRECTION('',(1.,0.,0.));
#1071=DIRECTION('',(-1.,0.,0.));
#1072=DIRECTION('',(0.,-1.,0.));
#1073=DIRECTION('center_axis',(0.,1.,0.));
#1074=DIRECTION('ref_axis',(0.,0.,1.));
#1075=DIRECTION('',(0.,0.,1.));
#1076=DIRECTION('',(0.,0.,-1.));
#1077=DIRECTION('',(-1.,0.,0.));
#1078=DIRECTION('',(0.,0.,1.));
#1079=DIRECTION('',(1.,0.,0.));
#1080=DIRECTION('',(0.,0.,-1.));
#1081=DIRECTION('center_axis',(-1.,0.,0.));
#1082=DIRECTION('ref_axis',(0.,0.,1.));
#1083=DIRECTION('',(0.,0.,1.));
#1084=DIRECTION('',(0.,1.,0.));
#1085=DIRECTION('center_axis',(-1.,0.,0.));
#1086=DIRECTION('ref_axis',(0.,-1.,0.));
#1087=DIRECTION('',(0.,0.,1.));
#1088=DIRECTION('center_axis',(-1.,0.,0.));
#1089=DIRECTION('ref_axis',(0.,0.,1.));
#1090=DIRECTION('',(0.,0.,1.));
#1091=DIRECTION('',(0.,1.,0.));
#1092=DIRECTION('center_axis',(-1.,0.,0.));
#1093=DIRECTION('ref_axis',(0.,-1.,0.));
#1094=DIRECTION('',(0.,0.,1.));
#1095=DIRECTION('center_axis',(0.,0.,1.));
#1096=DIRECTION('ref_axis',(1.,0.,0.));
#1097=DIRECTION('',(-1.,0.,0.));
#1098=DIRECTION('',(0.,1.,0.));
#1099=DIRECTION('center_axis',(0.,0.,1.));
#1100=DIRECTION('ref_axis',(1.,0.,0.));
#1101=DIRECTION('',(-1.,0.,0.));
#1102=DIRECTION('',(0.,1.,0.));
#1103=DIRECTION('center_axis',(0.,1.,0.));
#1104=DIRECTION('ref_axis',(0.,0.,-1.));
#1105=DIRECTION('',(0.,0.,-1.));
#1106=DIRECTION('',(1.,0.,0.));
#1107=DIRECTION('',(0.,0.,1.));
#1108=DIRECTION('',(-1.,0.,0.));
#1109=DIRECTION('center_axis',(0.,-1.,0.));
#1110=DIRECTION('ref_axis',(0.,0.,1.));
#1111=DIRECTION('',(0.,0.,1.));
#1112=DIRECTION('',(-1.,0.,0.));
#1113=DIRECTION('',(0.,0.,-1.));
#1114=DIRECTION('center_axis',(0.,0.,-1.));
#1115=DIRECTION('ref_axis',(0.,-1.,0.));
#1116=DIRECTION('',(0.,-1.,0.));
#1117=DIRECTION('',(0.,1.,0.));
#1118=DIRECTION('center_axis',(-1.,0.,0.));
#1119=DIRECTION('ref_axis',(0.,-1.,0.));
#1120=DIRECTION('',(0.,-1.,0.));
#1121=DIRECTION('',(0.,0.,1.));
#1122=DIRECTION('',(0.,1.,0.));
#1123=DIRECTION('',(0.,0.,1.));
#1124=DIRECTION('center_axis',(0.,0.,1.));
#1125=DIRECTION('ref_axis',(1.,0.,0.));
#1126=DIRECTION('',(0.,1.,0.));
#1127=DIRECTION('',(1.,0.,0.));
#1128=DIRECTION('',(0.,1.,0.));
#1129=DIRECTION('',(-1.,0.,0.));
#1130=DIRECTION('center_axis',(0.,-1.,0.));
#1131=DIRECTION('ref_axis',(0.,0.,-1.));
#1132=DIRECTION('',(0.,0.,1.));
#1133=DIRECTION('',(1.,0.,0.));
#1134=DIRECTION('',(0.,0.,1.));
#1135=DIRECTION('center_axis',(1.,0.,0.));
#1136=DIRECTION('ref_axis',(0.,0.,-1.));
#1137=DIRECTION('',(0.,1.,0.));
#1138=DIRECTION('center_axis',(-1.,0.,0.));
#1139=DIRECTION('ref_axis',(0.,0.,1.));
#1140=DIRECTION('',(0.,-1.,0.));
#1141=DIRECTION('',(0.,0.,-1.));
#1142=DIRECTION('center_axis',(0.,-1.,0.));
#1143=DIRECTION('ref_axis',(0.,0.,-1.));
#1144=DIRECTION('',(0.,0.,1.));
#1145=DIRECTION('',(1.,0.,0.));
#1146=DIRECTION('',(0.,0.,1.));
#1147=DIRECTION('center_axis',(1.,0.,0.));
#1148=DIRECTION('ref_axis',(0.,0.,-1.));
#1149=DIRECTION('',(0.,1.,0.));
#1150=DIRECTION('center_axis',(-1.,0.,0.));
#1151=DIRECTION('ref_axis',(0.,0.,1.));
#1152=DIRECTION('',(0.,0.,1.));
#1153=DIRECTION('',(0.,-1.,0.));
#1154=DIRECTION('center_axis',(-1.,0.,0.));
#1155=DIRECTION('ref_axis',(0.,0.,1.));
#1156=DIRECTION('',(0.,-1.,0.));
#1157=DIRECTION('center_axis',(1.,0.,0.));
#1158=DIRECTION('ref_axis',(0.,1.,0.));
#1159=DIRECTION('',(0.,0.,-1.));
#1160=DIRECTION('',(0.,-1.,0.));
#1161=DIRECTION('',(0.,0.,1.));
#1162=DIRECTION('center_axis',(1.,0.,0.));
#1163=DIRECTION('ref_axis',(0.,1.,0.));
#1164=DIRECTION('',(0.,0.,1.));
#1165=DIRECTION('',(0.,0.,1.));
#1166=DIRECTION('',(0.,-1.,0.));
#1167=DIRECTION('center_axis',(-1.,0.,0.));
#1168=DIRECTION('ref_axis',(0.,-1.,0.));
#1169=DIRECTION('',(0.,0.,1.));
#1170=DIRECTION('',(0.,0.,-1.));
#1171=DIRECTION('center_axis',(0.,1.,0.));
#1172=DIRECTION('ref_axis',(-1.,0.,0.));
#1173=DIRECTION('',(-1.,0.,0.));
#1174=DIRECTION('center_axis',(0.,-1.,0.));
#1175=DIRECTION('ref_axis',(1.,0.,0.));
#1176=DIRECTION('',(1.,0.,0.));
#1177=DIRECTION('center_axis',(0.,1.,0.));
#1178=DIRECTION('ref_axis',(-1.,0.,0.));
#1179=DIRECTION('',(1.,0.,0.));
#1180=DIRECTION('center_axis',(0.,-1.,0.));
#1181=DIRECTION('ref_axis',(1.,0.,0.));
#1182=DIRECTION('',(-1.,0.,0.));
#1183=DIRECTION('center_axis',(0.,0.,1.));
#1184=DIRECTION('ref_axis',(1.,0.,0.));
#1185=CARTESIAN_POINT('',(0.,0.,0.));
#1186=CARTESIAN_POINT('Origin',(-5.,24.5,3.));
#1187=CARTESIAN_POINT('',(-3.6,24.5,3.));
#1188=CARTESIAN_POINT('Origin',(-5.,24.5,3.));
#1189=CARTESIAN_POINT('',(-3.6,24.5,0.));
#1190=CARTESIAN_POINT('',(-3.6,24.5,3.));
#1191=CARTESIAN_POINT('Origin',(-5.,24.5,0.));
#1192=CARTESIAN_POINT('Origin',(-5.,-31.5,3.));
#1193=CARTESIAN_POINT('',(-3.6,-31.5,3.));
#1194=CARTESIAN_POINT('Origin',(-5.,-31.5,3.));
#1195=CARTESIAN_POINT('',(-3.6,-31.5,0.));
#1196=CARTESIAN_POINT('',(-3.6,-31.5,3.));
#1197=CARTESIAN_POINT('Origin',(-5.,-31.5,0.));
#1198=CARTESIAN_POINT('Origin',(-29.5,-38.5,3.5));
#1199=CARTESIAN_POINT('',(-37.,-38.5,3.));
#1200=CARTESIAN_POINT('',(-22.,-38.5,3.));
#1201=CARTESIAN_POINT('',(-16.5,-38.5,3.));
#1202=CARTESIAN_POINT('',(-37.,-38.5,2.));
#1203=CARTESIAN_POINT('',(-37.,-38.5,2.));
#1204=CARTESIAN_POINT('',(-22.,-38.5,2.));
#1205=CARTESIAN_POINT('',(-22.,-38.5,2.));
#1206=CARTESIAN_POINT('',(-22.,-38.5,5.));
#1207=CARTESIAN_POINT('Origin',(-22.,-44.5,5.));
#1208=CARTESIAN_POINT('',(-22.,-41.5,3.));
#1209=CARTESIAN_POINT('',(-22.,-24.,3.));
#1210=CARTESIAN_POINT('',(-22.,-44.5,2.));
#1211=CARTESIAN_POINT('',(-22.,-44.5,2.));
#1212=CARTESIAN_POINT('',(-22.,-44.5,5.));
#1213=CARTESIAN_POINT('',(-22.,-44.5,2.5));
#1214=CARTESIAN_POINT('',(-22.,-41.5,5.));
#1215=CARTESIAN_POINT('',(-22.,-44.5,5.));
#1216=CARTESIAN_POINT('',(-22.,-41.5,4.));
#1217=CARTESIAN_POINT('Origin',(-37.,-44.5,5.));
#1218=CARTESIAN_POINT('',(-37.,-41.5,5.));
#1219=CARTESIAN_POINT('',(-42.,-41.5,5.));
#1220=CARTESIAN_POINT('',(-37.,-44.5,5.));
#1221=CARTESIAN_POINT('',(-42.,-44.5,5.));
#1222=CARTESIAN_POINT('',(-37.,-44.5,5.));
#1223=CARTESIAN_POINT('Origin',(-37.,-44.5,2.));
#1224=CARTESIAN_POINT('',(-37.,-41.5,3.));
#1225=CARTESIAN_POINT('',(-37.,-24.,3.));
#1226=CARTESIAN_POINT('',(-37.,-41.5,2.5));
#1227=CARTESIAN_POINT('',(-37.,-44.5,2.));
#1228=CARTESIAN_POINT('',(-37.,-44.5,1.));
#1229=CARTESIAN_POINT('',(-37.,-44.5,2.));
#1230=CARTESIAN_POINT('Origin',(-22.,-44.5,2.));
#1231=CARTESIAN_POINT('',(-34.5,-44.5,2.));
#1232=CARTESIAN_POINT('Origin',(-3.50000000000001,-3.5,3.));
#1233=CARTESIAN_POINT('',(37.,-41.5,3.));
#1234=CARTESIAN_POINT('',(-25.25,-41.5,3.));
#1235=CARTESIAN_POINT('',(37.,-38.5,3.));
#1236=CARTESIAN_POINT('',(37.,-24.,3.));
#1237=CARTESIAN_POINT('',(37.,-24.4999997913838,3.));
#1238=CARTESIAN_POINT('',(37.,-13.9999998956919,3.));
#1239=CARTESIAN_POINT('',(37.,17.4999997913837,3.));
#1240=CARTESIAN_POINT('',(37.,-24.,3.));
#1241=CARTESIAN_POINT('',(37.,31.5,3.));
#1242=CARTESIAN_POINT('',(37.,14.,3.));
#1243=CARTESIAN_POINT('',(37.,34.5,3.));
#1244=CARTESIAN_POINT('',(37.,-24.,3.));
#1245=CARTESIAN_POINT('',(-44.,34.5,3.));
#1246=CARTESIAN_POINT('',(18.25,34.5,3.));
#1247=CARTESIAN_POINT('',(-44.,-41.5,3.));
#1248=CARTESIAN_POINT('',(-44.,17.,3.));
#1249=CARTESIAN_POINT('',(-25.25,-41.5,3.));
#1250=CARTESIAN_POINT('Origin',(37.,-24.4999997913838,23.));
#1251=CARTESIAN_POINT('',(36.9999991729856,-38.5,24.5));
#1252=CARTESIAN_POINT('',(37.,-38.5,23.));
#1253=CARTESIAN_POINT('',(37.0000055134297,-38.5,13.000000000003));
#1254=CARTESIAN_POINT('',(36.9999991729856,-24.4999997913838,24.5));
#1255=CARTESIAN_POINT('',(36.9999991729856,-24.4999997913838,24.5));
#1256=CARTESIAN_POINT('',(37.,-24.4999997913838,23.));
#1257=CARTESIAN_POINT('',(37.0000063404441,-24.4999997913838,11.4999999776518));
#1258=CARTESIAN_POINT('',(37.,-24.4999997913838,23.));
#1259=CARTESIAN_POINT('Origin',(35.5,-24.4999997913838,23.));
#1260=CARTESIAN_POINT('',(34.,-38.5,24.5));
#1261=CARTESIAN_POINT('',(35.5,-38.5,23.));
#1262=CARTESIAN_POINT('',(40.875,-38.5,17.625));
#1263=CARTESIAN_POINT('',(34.,-24.4999997913838,24.5));
#1264=CARTESIAN_POINT('',(34.,-27.9999998435378,24.5));
#1265=CARTESIAN_POINT('',(35.5,-24.4999997913838,23.));
#1266=CARTESIAN_POINT('',(41.6250000111759,-24.4999997913838,16.8749999888241));
#1267=CARTESIAN_POINT('',(35.5,-24.4999997913838,23.));
#1268=CARTESIAN_POINT('Origin',(36.9999991729856,-24.4999997913838,24.5));
#1269=CARTESIAN_POINT('',(35.5,-38.5,24.5));
#1270=CARTESIAN_POINT('',(36.9999995864928,-38.5,24.5));
#1271=CARTESIAN_POINT('',(35.5,-24.4999997913838,24.5));
#1272=CARTESIAN_POINT('',(35.5,-24.4999997913838,24.5));
#1273=CARTESIAN_POINT('',(36.9999995864928,-24.4999997913838,24.5));
#1274=CARTESIAN_POINT('Origin',(35.5,-24.4999997913838,24.5));
#1275=CARTESIAN_POINT('',(35.5,-38.5,13.75));
#1276=CARTESIAN_POINT('',(35.5,-24.4999997913838,12.2499999776483));
#1277=CARTESIAN_POINT('Origin',(-3.50000000000001,-3.5,23.));
#1278=CARTESIAN_POINT('',(40.,-41.5,23.));
#1279=CARTESIAN_POINT('',(-44.,-41.5,23.));
#1280=CARTESIAN_POINT('',(18.25,-41.5,23.));
#1281=CARTESIAN_POINT('',(-44.,-16.5,23.));
#1282=CARTESIAN_POINT('',(-44.,17.,23.));
#1283=CARTESIAN_POINT('',(-47.,-16.5,23.));
#1284=CARTESIAN_POINT('',(-23.75,-16.5,23.));
#1285=CARTESIAN_POINT('',(-47.,-44.5,23.));
#1286=CARTESIAN_POINT('',(-47.,-44.5,23.));
#1287=CARTESIAN_POINT('',(40.,-44.5,23.));
#1288=CARTESIAN_POINT('',(40.,-44.5,23.));
#1289=CARTESIAN_POINT('',(40.,37.5,23.));
#1290=CARTESIAN_POINT('Origin',(37.,-24.4999997913838,-4.47034831374538E-8));
#1291=CARTESIAN_POINT('',(34.,-24.4999997913838,26.));
#1292=CARTESIAN_POINT('',(34.,-24.4999997913838,23.));
#1293=CARTESIAN_POINT('',(40.,-24.4999997913838,26.));
#1294=CARTESIAN_POINT('',(37.,-24.4999997913838,26.));
#1295=CARTESIAN_POINT('',(40.,-24.4999997913838,-4.47034831374538E-8));
#1296=CARTESIAN_POINT('',(40.,-24.4999997913838,3.));
#1297=CARTESIAN_POINT('',(37.,-24.4999997913838,-4.47034831374538E-8));
#1298=CARTESIAN_POINT('',(37.,-24.4999997913838,-4.47034831374538E-8));
#1299=CARTESIAN_POINT('',(37.,-24.4999997913838,5.74999989196658));
#1300=CARTESIAN_POINT('',(37.,-24.4999997913838,3.));
#1301=CARTESIAN_POINT('Origin',(35.5,31.5,23.));
#1302=CARTESIAN_POINT('',(34.,17.4999997913837,24.5));
#1303=CARTESIAN_POINT('',(35.5,17.4999997913837,23.));
#1304=CARTESIAN_POINT('',(40.875,17.4999997913837,17.625));
#1305=CARTESIAN_POINT('',(34.,31.5,24.5));
#1306=CARTESIAN_POINT('',(34.,27.9999999478459,24.5));
#1307=CARTESIAN_POINT('',(35.5,31.5,23.));
#1308=CARTESIAN_POINT('',(41.6250000111759,31.5,16.8749999888241));
#1309=CARTESIAN_POINT('',(35.5,31.5,23.));
#1310=CARTESIAN_POINT('Origin',(35.5,31.5,24.5));
#1311=CARTESIAN_POINT('',(35.5,17.4999997913837,24.5));
#1312=CARTESIAN_POINT('',(35.5,17.4999997913837,13.75));
#1313=CARTESIAN_POINT('',(35.5,31.5,24.5));
#1314=CARTESIAN_POINT('',(35.5,31.5,12.2499999776483));
#1315=CARTESIAN_POINT('',(35.5,31.5,24.5));
#1316=CARTESIAN_POINT('Origin',(37.,31.5,24.5));
#1317=CARTESIAN_POINT('',(37.,17.4999997913837,24.5));
#1318=CARTESIAN_POINT('',(37.,17.4999997913837,24.5));
#1319=CARTESIAN_POINT('',(37.,31.5,24.5));
#1320=CARTESIAN_POINT('',(37.,31.5,24.5));
#1321=CARTESIAN_POINT('',(37.,31.5,24.5));
#1322=CARTESIAN_POINT('Origin',(37.,31.5,-4.47034831374538E-8));
#1323=CARTESIAN_POINT('',(37.,31.5,11.4999999776483));
#1324=CARTESIAN_POINT('',(34.,31.5,26.));
#1325=CARTESIAN_POINT('',(34.,31.5,23.));
#1326=CARTESIAN_POINT('',(40.,31.5,26.));
#1327=CARTESIAN_POINT('',(37.,31.5,26.));
#1328=CARTESIAN_POINT('',(40.,31.5,-4.47034831374538E-8));
#1329=CARTESIAN_POINT('',(40.,31.5,-4.47034831374538E-8));
#1330=CARTESIAN_POINT('',(37.,31.5,-4.47034831374538E-8));
#1331=CARTESIAN_POINT('',(37.,31.5,-4.47034831374538E-8));
#1332=CARTESIAN_POINT('',(37.,31.5,5.74999989196658));
#1333=CARTESIAN_POINT('Origin',(34.,-31.4999998956919,24.5));
#1334=CARTESIAN_POINT('',(34.,-38.5,26.));
#1335=CARTESIAN_POINT('',(34.,-38.5,26.));
#1336=CARTESIAN_POINT('',(34.,-24.4999997913838,26.));
#1337=CARTESIAN_POINT('Origin',(37.,-24.4999997913838,3.));
#1338=CARTESIAN_POINT('',(37.,-38.5,3.));
#1339=CARTESIAN_POINT('Origin',(34.,24.4999998956919,24.5));
#1340=CARTESIAN_POINT('',(34.,17.4999997913837,26.));
#1341=CARTESIAN_POINT('',(34.,17.4999997913837,26.));
#1342=CARTESIAN_POINT('',(34.,31.5,26.));
#1343=CARTESIAN_POINT('Origin',(37.,31.5,3.));
#1344=CARTESIAN_POINT('',(37.,17.4999997913837,3.));
#1345=CARTESIAN_POINT('Origin',(38.5,-31.4999998956919,26.));
#1346=CARTESIAN_POINT('',(40.,-38.5,26.));
#1347=CARTESIAN_POINT('',(37.,-38.5,26.));
#1348=CARTESIAN_POINT('',(40.,-24.4999997913838,26.));
#1349=CARTESIAN_POINT('Origin',(38.5,24.4999998956919,26.));
#1350=CARTESIAN_POINT('',(40.,17.4999997913837,26.));
#1351=CARTESIAN_POINT('',(37.,17.4999997913837,26.));
#1352=CARTESIAN_POINT('',(40.,31.5,26.));
#1353=CARTESIAN_POINT('Origin',(-44.,9.5,23.));
#1354=CARTESIAN_POINT('',(-44.,9.5,23.));
#1355=CARTESIAN_POINT('',(-44.,9.5,14.7206012806113));
#1356=CARTESIAN_POINT('',(-44.,9.5,13.));
#1357=CARTESIAN_POINT('',(-47.,9.5,23.));
#1358=CARTESIAN_POINT('',(-23.75,9.5,23.));
#1359=CARTESIAN_POINT('',(-47.,9.5,14.7206012806113));
#1360=CARTESIAN_POINT('',(-47.,9.5,11.5));
#1361=CARTESIAN_POINT('',(-44.,9.5,14.7206012806113));
#1362=CARTESIAN_POINT('Origin',(-44.,-16.5,14.7206012806113));
#1363=CARTESIAN_POINT('',(-44.,-16.5,14.7206012806113));
#1364=CARTESIAN_POINT('',(-44.,-16.5,8.86030064030567));
#1365=CARTESIAN_POINT('',(-47.,-16.5,14.7206012806113));
#1366=CARTESIAN_POINT('',(-44.,-16.5,14.7206012806113));
#1367=CARTESIAN_POINT('',(-47.,-16.5,7.36030064030567));
#1368=CARTESIAN_POINT('Origin',(-44.,9.5,14.7206012806113));
#1369=CARTESIAN_POINT('',(-44.,23.5,14.7206012806113));
#1370=CARTESIAN_POINT('',(-47.,23.5,14.7206012806113));
#1371=CARTESIAN_POINT('Origin',(-47.,37.5,0.));
#1372=CARTESIAN_POINT('',(-47.,37.5,23.));
#1373=CARTESIAN_POINT('',(-47.,-44.5,23.));
#1374=CARTESIAN_POINT('',(-47.,37.5,0.));
#1375=CARTESIAN_POINT('',(-47.,37.5,0.));
#1376=CARTESIAN_POINT('',(-47.,-44.5,0.));
#1377=CARTESIAN_POINT('',(-47.,-44.5,0.));
#1378=CARTESIAN_POINT('',(-47.,-44.5,0.));
#1379=CARTESIAN_POINT('Origin',(-3.50000000000001,-3.5,23.));
#1380=CARTESIAN_POINT('',(-44.,34.5,23.));
#1381=CARTESIAN_POINT('',(-44.,17.,23.));
#1382=CARTESIAN_POINT('',(40.,34.5,23.));
#1383=CARTESIAN_POINT('',(18.25,34.5,23.));
#1384=CARTESIAN_POINT('',(40.,37.5,23.));
#1385=CARTESIAN_POINT('',(40.,37.5,23.));
#1386=CARTESIAN_POINT('',(-47.,37.5,23.));
#1387=CARTESIAN_POINT('Origin',(37.,17.4999997913837,3.));
#1388=CARTESIAN_POINT('',(37.,17.4999997913837,-4.47034831374538E-8));
#1389=CARTESIAN_POINT('',(37.,17.4999997913837,7.24999991431832));
#1390=CARTESIAN_POINT('',(40.,17.4999997913837,-4.47034831374538E-8));
#1391=CARTESIAN_POINT('',(37.,17.4999997913837,-4.47034831374538E-8));
#1392=CARTESIAN_POINT('',(40.,17.4999997913837,3.));
#1393=CARTESIAN_POINT('Origin',(40.,24.4999998956919,1.49999997764826));
#1394=CARTESIAN_POINT('',(40.,17.4999997913837,-4.47034831374538E-8));
#1395=CARTESIAN_POINT('Origin',(37.,-3.5,11.4999998286366));
#1396=CARTESIAN_POINT('',(37.,34.5,0.));
#1397=CARTESIAN_POINT('',(37.,-3.5,0.));
#1398=CARTESIAN_POINT('',(37.,34.5,23.));
#1399=CARTESIAN_POINT('Origin',(37.,-38.5,3.));
#1400=CARTESIAN_POINT('',(37.,-38.5,-4.47034831374538E-8));
#1401=CARTESIAN_POINT('',(37.,-38.5,7.24999991431832));
#1402=CARTESIAN_POINT('',(40.,-38.5,-4.47034831374538E-8));
#1403=CARTESIAN_POINT('',(37.,-38.5,-4.47034831374538E-8));
#1404=CARTESIAN_POINT('',(40.,-38.5,3.));
#1405=CARTESIAN_POINT('Origin',(40.,-31.4999998956919,1.49999997764826));
#1406=CARTESIAN_POINT('',(40.,-24.4999997913838,-4.47034831374538E-8));
#1407=CARTESIAN_POINT('Origin',(37.,-3.5,11.4999998286366));
#1408=CARTESIAN_POINT('',(37.,-41.5,-3.42726709234853E-7));
#1409=CARTESIAN_POINT('',(37.,-41.5,23.));
#1410=CARTESIAN_POINT('',(37.,-3.5,0.));
#1411=CARTESIAN_POINT('Origin',(37.,-3.5,11.4999998286366));
#1412=CARTESIAN_POINT('',(37.,-3.5,0.));
#1413=CARTESIAN_POINT('Origin',(40.,-44.5,0.));
#1414=CARTESIAN_POINT('',(40.,34.5,0.));
#1415=CARTESIAN_POINT('',(40.,34.5,11.5));
#1416=CARTESIAN_POINT('',(40.,37.5,0.));
#1417=CARTESIAN_POINT('',(40.,37.5,0.));
#1418=CARTESIAN_POINT('',(40.,37.5,0.));
#1419=CARTESIAN_POINT('Origin',(40.,-44.5,0.));
#1420=CARTESIAN_POINT('',(40.,-41.5,-3.42726709234853E-7));
#1421=CARTESIAN_POINT('',(40.,-41.5,-1.71363354617426E-7));
#1422=CARTESIAN_POINT('',(40.,-44.5,0.));
#1423=CARTESIAN_POINT('',(40.,-44.5,0.));
#1424=CARTESIAN_POINT('',(40.,37.5,0.));
#1425=CARTESIAN_POINT('Origin',(-44.,37.5,3.));
#1426=CARTESIAN_POINT('',(-44.,-41.5,3.));
#1427=CARTESIAN_POINT('',(-44.,34.5,3.));
#1428=CARTESIAN_POINT('Origin',(40.,34.5,3.));
#1429=CARTESIAN_POINT('',(18.25,34.5,0.));
#1430=CARTESIAN_POINT('Origin',(-47.,-41.5,3.));
#1431=CARTESIAN_POINT('',(18.25,-41.5,0.));
#1432=CARTESIAN_POINT('Origin',(40.,37.5,0.));
#1433=CARTESIAN_POINT('',(-47.,37.5,0.));
#1434=CARTESIAN_POINT('Origin',(-47.,-44.5,0.));
#1435=CARTESIAN_POINT('',(40.,-44.5,0.));
#1436=CARTESIAN_POINT('Origin',(-3.50000000000001,-3.5,0.));
#1437=UNCERTAINTY_MEASURE_WITH_UNIT(LENGTH_MEASURE(0.01),#1441,
'DISTANCE_ACCURACY_VALUE',
'Maximum model space distance between geometric entities at asserted c
onnectivities');
#1438=UNCERTAINTY_MEASURE_WITH_UNIT(LENGTH_MEASURE(0.01),#1441,
'DISTANCE_ACCURACY_VALUE',
'Maximum model space distance between geometric entities at asserted c
onnectivities');
#1439=(
GEOMETRIC_REPRESENTATION_CONTEXT(3)
GLOBAL_UNCERTAINTY_ASSIGNED_CONTEXT((#1437))
GLOBAL_UNIT_ASSIGNED_CONTEXT((#1441,#1443,#1444))
REPRESENTATION_CONTEXT('','3D')
);
#1440=(
GEOMETRIC_REPRESENTATION_CONTEXT(3)
GLOBAL_UNCERTAINTY_ASSIGNED_CONTEXT((#1438))
GLOBAL_UNIT_ASSIGNED_CONTEXT((#1441,#1443,#1444))
REPRESENTATION_CONTEXT('','3D')
);
#1441=(
LENGTH_UNIT()
NAMED_UNIT(*)
SI_UNIT(.MILLI.,.METRE.)
);
#1442=(
LENGTH_UNIT()
NAMED_UNIT(*)
SI_UNIT($,.METRE.)
);
#1443=(
NAMED_UNIT(*)
PLANE_ANGLE_UNIT()
SI_UNIT($,.RADIAN.)
);
#1444=(
NAMED_UNIT(*)
SI_UNIT($,.STERADIAN.)
SOLID_ANGLE_UNIT()
);
#1445=SHAPE_DEFINITION_REPRESENTATION(#1446,#1447);
#1446=PRODUCT_DEFINITION_SHAPE('',$,#1449);
#1447=SHAPE_REPRESENTATION('',(#917),#1439);
#1448=PRODUCT_DEFINITION_CONTEXT('part definition',#1453,'design');
#1449=PRODUCT_DEFINITION('2026-04-24-22-56-23-405',
'4-Cells Battery Base',#1450,#1448);
#1450=PRODUCT_DEFINITION_FORMATION('',$,#1455);
#1451=PRODUCT_RELATED_PRODUCT_CATEGORY('4-Cells Battery Base',
'4-Cells Battery Base',(#1455));
#1452=APPLICATION_PROTOCOL_DEFINITION('international standard',
'automotive_design',2009,#1453);
#1453=APPLICATION_CONTEXT(
'Core Data for Automotive Mechanical Design Process');
#1454=PRODUCT_CONTEXT('part definition',#1453,'mechanical');
#1455=PRODUCT('2026-04-24-22-56-23-405','4-Cells Battery Base',$,(#1454));
#1456=PRESENTATION_STYLE_ASSIGNMENT((#1458));
#1457=PRESENTATION_STYLE_ASSIGNMENT((#1459));
#1458=SURFACE_STYLE_USAGE(.BOTH.,#1460);
#1459=SURFACE_STYLE_USAGE(.BOTH.,#1461);
#1460=SURFACE_SIDE_STYLE('',(#1462));
#1461=SURFACE_SIDE_STYLE('',(#1463));
#1462=SURFACE_STYLE_FILL_AREA(#1464);
#1463=SURFACE_STYLE_FILL_AREA(#1465);
#1464=FILL_AREA_STYLE('Steel - Satin',(#1466));
#1465=FILL_AREA_STYLE('Nylon 12 (with Formlabs Fuse 1 3D Printer)',(#1467));
#1466=FILL_AREA_STYLE_COLOUR('Steel - Satin',#1468);
#1467=FILL_AREA_STYLE_COLOUR(
'Nylon 12 (with Formlabs Fuse 1 3D Printer)',#1469);
#1468=COLOUR_RGB('Steel - Satin',0.627450980392157,0.627450980392157,0.627450980392157);
#1469=COLOUR_RGB('Nylon 12 (with Formlabs Fuse 1 3D Printer)',0.247058823529412,
0.247058823529412,0.247058823529412);
ENDSEC;
END-ISO-10303-21;
