ISO-10303-21;
HEADER;
/* Generated by software containing ST-Developer
 * from STEP Tools, Inc. (www.steptools.com) 
 */

FILE_DESCRIPTION(
/* description */ (''),
/* implementation_level */ '2;1');

FILE_NAME(
/* name */ 'Mount.step',
/* time_stamp */ '2026-05-11T00:04:32+05:00',
/* author */ (''),
/* organization */ (''),
/* preprocessor_version */ 'ST-DEVELOPER v20.1',
/* originating_system */ 'Autodesk Translation Framework v15.8.0.0',
/* authorisation */ '');

FILE_SCHEMA (('AUTOMOTIVE_DESIGN { 1 0 10303 214 3 1 1 }'));
ENDSEC;

DATA;
#10=MECHANICAL_DESIGN_GEOMETRIC_PRESENTATION_REPRESENTATION('',(#13),#677);
#11=SHAPE_REPRESENTATION_RELATIONSHIP('SRR','None',#684,#12);
#12=ADVANCED_BREP_SHAPE_REPRESENTATION('',(#14),#676);
#13=STYLED_ITEM('',(#694),#14);
#14=MANIFOLD_SOLID_BREP('Body1',#401);
#15=FACE_BOUND('',#57,.T.);
#16=FACE_BOUND('',#58,.T.);
#17=FACE_BOUND('',#62,.T.);
#18=FACE_BOUND('',#63,.T.);
#19=FACE_BOUND('',#75,.T.);
#20=FACE_BOUND('',#76,.T.);
#21=FACE_BOUND('',#81,.T.);
#22=FACE_BOUND('',#82,.T.);
#23=PLANE('',#418);
#24=PLANE('',#421);
#25=PLANE('',#427);
#26=PLANE('',#440);
#27=PLANE('',#441);
#28=PLANE('',#444);
#29=PLANE('',#445);
#30=PLANE('',#446);
#31=PLANE('',#447);
#32=PLANE('',#448);
#33=PLANE('',#449);
#34=PLANE('',#450);
#35=FACE_OUTER_BOUND('',#55,.T.);
#36=FACE_OUTER_BOUND('',#56,.T.);
#37=FACE_OUTER_BOUND('',#59,.T.);
#38=FACE_OUTER_BOUND('',#60,.T.);
#39=FACE_OUTER_BOUND('',#61,.T.);
#40=FACE_OUTER_BOUND('',#64,.T.);
#41=FACE_OUTER_BOUND('',#65,.T.);
#42=FACE_OUTER_BOUND('',#66,.T.);
#43=FACE_OUTER_BOUND('',#67,.T.);
#44=FACE_OUTER_BOUND('',#68,.T.);
#45=FACE_OUTER_BOUND('',#69,.T.);
#46=FACE_OUTER_BOUND('',#70,.T.);
#47=FACE_OUTER_BOUND('',#71,.T.);
#48=FACE_OUTER_BOUND('',#72,.T.);
#49=FACE_OUTER_BOUND('',#73,.T.);
#50=FACE_OUTER_BOUND('',#74,.T.);
#51=FACE_OUTER_BOUND('',#77,.T.);
#52=FACE_OUTER_BOUND('',#78,.T.);
#53=FACE_OUTER_BOUND('',#79,.T.);
#54=FACE_OUTER_BOUND('',#80,.T.);
#55=EDGE_LOOP('',(#265,#266,#267,#268));
#56=EDGE_LOOP('',(#269,#270,#271,#272,#273));
#57=EDGE_LOOP('',(#274));
#58=EDGE_LOOP('',(#275));
#59=EDGE_LOOP('',(#276,#277,#278,#279,#280,#281,#282,#283,#284,#285,#286,
#287));
#60=EDGE_LOOP('',(#288,#289,#290,#291));
#61=EDGE_LOOP('',(#292,#293,#294,#295,#296));
#62=EDGE_LOOP('',(#297));
#63=EDGE_LOOP('',(#298));
#64=EDGE_LOOP('',(#299,#300,#301,#302));
#65=EDGE_LOOP('',(#303,#304,#305,#306));
#66=EDGE_LOOP('',(#307,#308,#309,#310));
#67=EDGE_LOOP('',(#311,#312,#313,#314));
#68=EDGE_LOOP('',(#315,#316,#317,#318));
#69=EDGE_LOOP('',(#319,#320,#321,#322));
#70=EDGE_LOOP('',(#323,#324,#325,#326));
#71=EDGE_LOOP('',(#327,#328,#329,#330));
#72=EDGE_LOOP('',(#331,#332,#333,#334));
#73=EDGE_LOOP('',(#335,#336,#337,#338));
#74=EDGE_LOOP('',(#339,#340,#341,#342,#343));
#75=EDGE_LOOP('',(#344));
#76=EDGE_LOOP('',(#345));
#77=EDGE_LOOP('',(#346,#347,#348,#349));
#78=EDGE_LOOP('',(#350,#351,#352,#353));
#79=EDGE_LOOP('',(#354,#355,#356,#357,#358,#359,#360,#361,#362,#363,#364,
#365));
#80=EDGE_LOOP('',(#366,#367,#368,#369,#370));
#81=EDGE_LOOP('',(#371));
#82=EDGE_LOOP('',(#372));
#83=LINE('',#569,#121);
#84=LINE('',#572,#122);
#85=LINE('',#575,#123);
#86=LINE('',#577,#124);
#87=LINE('',#579,#125);
#88=LINE('',#580,#126);
#89=LINE('',#587,#127);
#90=LINE('',#589,#128);
#91=LINE('',#593,#129);
#92=LINE('',#595,#130);
#93=LINE('',#597,#131);
#94=LINE('',#599,#132);
#95=LINE('',#601,#133);
#96=LINE('',#604,#134);
#97=LINE('',#610,#135);
#98=LINE('',#613,#136);
#99=LINE('',#615,#137);
#100=LINE('',#616,#138);
#101=LINE('',#624,#139);
#102=LINE('',#628,#140);
#103=LINE('',#631,#141);
#104=LINE('',#635,#142);
#105=LINE('',#639,#143);
#106=LINE('',#642,#144);
#107=LINE('',#644,#145);
#108=LINE('',#647,#146);
#109=LINE('',#648,#147);
#110=LINE('',#651,#148);
#111=LINE('',#654,#149);
#112=LINE('',#657,#150);
#113=LINE('',#658,#151);
#114=LINE('',#660,#152);
#115=LINE('',#663,#153);
#116=LINE('',#664,#154);
#117=LINE('',#666,#155);
#118=LINE('',#669,#156);
#119=LINE('',#670,#157);
#120=LINE('',#672,#158);
#121=VECTOR('',#457,10.);
#122=VECTOR('',#460,10.);
#123=VECTOR('',#463,10.);
#124=VECTOR('',#464,10.);
#125=VECTOR('',#465,10.);
#126=VECTOR('',#466,10.);
#127=VECTOR('',#473,10.);
#128=VECTOR('',#474,10.);
#129=VECTOR('',#477,10.);
#130=VECTOR('',#478,10.);
#131=VECTOR('',#479,10.);
#132=VECTOR('',#480,10.);
#133=VECTOR('',#481,10.);
#134=VECTOR('',#484,10.);
#135=VECTOR('',#491,10.);
#136=VECTOR('',#494,10.);
#137=VECTOR('',#495,10.);
#138=VECTOR('',#496,10.);
#139=VECTOR('',#505,1.6);
#140=VECTOR('',#510,1.6);
#141=VECTOR('',#513,1.6);
#142=VECTOR('',#518,1.6);
#143=VECTOR('',#523,10.);
#144=VECTOR('',#526,10.);
#145=VECTOR('',#529,10.);
#146=VECTOR('',#532,10.);
#147=VECTOR('',#533,10.);
#148=VECTOR('',#536,10.);
#149=VECTOR('',#539,10.);
#150=VECTOR('',#542,10.);
#151=VECTOR('',#543,10.);
#152=VECTOR('',#546,10.);
#153=VECTOR('',#549,10.);
#154=VECTOR('',#550,10.);
#155=VECTOR('',#553,10.);
#156=VECTOR('',#556,10.);
#157=VECTOR('',#557,10.);
#158=VECTOR('',#560,10.);
#159=CIRCLE('',#416,3.);
#160=CIRCLE('',#417,3.);
#161=CIRCLE('',#419,1.6);
#162=CIRCLE('',#420,1.6);
#163=CIRCLE('',#422,18.5);
#164=CIRCLE('',#423,21.5);
#165=CIRCLE('',#425,3.);
#166=CIRCLE('',#426,3.);
#167=CIRCLE('',#428,1.6);
#168=CIRCLE('',#429,1.6);
#169=CIRCLE('',#431,1.6);
#170=CIRCLE('',#433,1.6);
#171=CIRCLE('',#435,1.6);
#172=CIRCLE('',#437,1.6);
#173=CIRCLE('',#439,18.5);
#174=CIRCLE('',#443,21.5);
#175=VERTEX_POINT('',#565);
#176=VERTEX_POINT('',#566);
#177=VERTEX_POINT('',#568);
#178=VERTEX_POINT('',#570);
#179=VERTEX_POINT('',#574);
#180=VERTEX_POINT('',#576);
#181=VERTEX_POINT('',#578);
#182=VERTEX_POINT('',#581);
#183=VERTEX_POINT('',#583);
#184=VERTEX_POINT('',#586);
#185=VERTEX_POINT('',#588);
#186=VERTEX_POINT('',#590);
#187=VERTEX_POINT('',#592);
#188=VERTEX_POINT('',#594);
#189=VERTEX_POINT('',#596);
#190=VERTEX_POINT('',#598);
#191=VERTEX_POINT('',#600);
#192=VERTEX_POINT('',#602);
#193=VERTEX_POINT('',#606);
#194=VERTEX_POINT('',#608);
#195=VERTEX_POINT('',#612);
#196=VERTEX_POINT('',#614);
#197=VERTEX_POINT('',#617);
#198=VERTEX_POINT('',#619);
#199=VERTEX_POINT('',#622);
#200=VERTEX_POINT('',#626);
#201=VERTEX_POINT('',#630);
#202=VERTEX_POINT('',#634);
#203=VERTEX_POINT('',#638);
#204=VERTEX_POINT('',#640);
#205=VERTEX_POINT('',#646);
#206=VERTEX_POINT('',#650);
#207=VERTEX_POINT('',#652);
#208=VERTEX_POINT('',#656);
#209=VERTEX_POINT('',#662);
#210=VERTEX_POINT('',#668);
#211=EDGE_CURVE('',#175,#176,#159,.T.);
#212=EDGE_CURVE('',#176,#177,#83,.T.);
#213=EDGE_CURVE('',#177,#178,#160,.T.);
#214=EDGE_CURVE('',#178,#175,#84,.T.);
#215=EDGE_CURVE('',#175,#179,#85,.T.);
#216=EDGE_CURVE('',#179,#180,#86,.T.);
#217=EDGE_CURVE('',#180,#181,#87,.T.);
#218=EDGE_CURVE('',#181,#176,#88,.T.);
#219=EDGE_CURVE('',#182,#182,#161,.T.);
#220=EDGE_CURVE('',#183,#183,#162,.T.);
#221=EDGE_CURVE('',#184,#178,#89,.T.);
#222=EDGE_CURVE('',#184,#185,#90,.T.);
#223=EDGE_CURVE('',#185,#186,#163,.T.);
#224=EDGE_CURVE('',#186,#187,#91,.T.);
#225=EDGE_CURVE('',#188,#187,#92,.T.);
#226=EDGE_CURVE('',#189,#188,#93,.T.);
#227=EDGE_CURVE('',#190,#189,#94,.T.);
#228=EDGE_CURVE('',#190,#191,#95,.T.);
#229=EDGE_CURVE('',#191,#192,#164,.T.);
#230=EDGE_CURVE('',#179,#192,#96,.T.);
#231=EDGE_CURVE('',#193,#189,#165,.T.);
#232=EDGE_CURVE('',#188,#194,#166,.T.);
#233=EDGE_CURVE('',#194,#193,#97,.T.);
#234=EDGE_CURVE('',#187,#195,#98,.T.);
#235=EDGE_CURVE('',#195,#196,#99,.T.);
#236=EDGE_CURVE('',#196,#194,#100,.T.);
#237=EDGE_CURVE('',#197,#197,#167,.T.);
#238=EDGE_CURVE('',#198,#198,#168,.T.);
#239=EDGE_CURVE('',#199,#199,#169,.T.);
#240=EDGE_CURVE('',#199,#198,#101,.T.);
#241=EDGE_CURVE('',#200,#200,#170,.T.);
#242=EDGE_CURVE('',#200,#197,#102,.T.);
#243=EDGE_CURVE('',#183,#201,#103,.T.);
#244=EDGE_CURVE('',#201,#201,#171,.T.);
#245=EDGE_CURVE('',#182,#202,#104,.T.);
#246=EDGE_CURVE('',#202,#202,#172,.T.);
#247=EDGE_CURVE('',#203,#185,#105,.T.);
#248=EDGE_CURVE('',#204,#203,#173,.T.);
#249=EDGE_CURVE('',#204,#186,#106,.T.);
#250=EDGE_CURVE('',#195,#204,#107,.T.);
#251=EDGE_CURVE('',#205,#184,#108,.T.);
#252=EDGE_CURVE('',#203,#205,#109,.T.);
#253=EDGE_CURVE('',#191,#206,#110,.T.);
#254=EDGE_CURVE('',#207,#206,#174,.T.);
#255=EDGE_CURVE('',#192,#207,#111,.T.);
#256=EDGE_CURVE('',#208,#190,#112,.T.);
#257=EDGE_CURVE('',#208,#206,#113,.T.);
#258=EDGE_CURVE('',#180,#207,#114,.T.);
#259=EDGE_CURVE('',#193,#209,#115,.T.);
#260=EDGE_CURVE('',#209,#208,#116,.T.);
#261=EDGE_CURVE('',#196,#209,#117,.T.);
#262=EDGE_CURVE('',#210,#181,#118,.T.);
#263=EDGE_CURVE('',#177,#210,#119,.T.);
#264=EDGE_CURVE('',#210,#205,#120,.T.);
#265=ORIENTED_EDGE('',*,*,#211,.T.);
#266=ORIENTED_EDGE('',*,*,#212,.T.);
#267=ORIENTED_EDGE('',*,*,#213,.T.);
#268=ORIENTED_EDGE('',*,*,#214,.T.);
#269=ORIENTED_EDGE('',*,*,#211,.F.);
#270=ORIENTED_EDGE('',*,*,#215,.T.);
#271=ORIENTED_EDGE('',*,*,#216,.T.);
#272=ORIENTED_EDGE('',*,*,#217,.T.);
#273=ORIENTED_EDGE('',*,*,#218,.T.);
#274=ORIENTED_EDGE('',*,*,#219,.T.);
#275=ORIENTED_EDGE('',*,*,#220,.T.);
#276=ORIENTED_EDGE('',*,*,#214,.F.);
#277=ORIENTED_EDGE('',*,*,#221,.F.);
#278=ORIENTED_EDGE('',*,*,#222,.T.);
#279=ORIENTED_EDGE('',*,*,#223,.T.);
#280=ORIENTED_EDGE('',*,*,#224,.T.);
#281=ORIENTED_EDGE('',*,*,#225,.F.);
#282=ORIENTED_EDGE('',*,*,#226,.F.);
#283=ORIENTED_EDGE('',*,*,#227,.F.);
#284=ORIENTED_EDGE('',*,*,#228,.T.);
#285=ORIENTED_EDGE('',*,*,#229,.T.);
#286=ORIENTED_EDGE('',*,*,#230,.F.);
#287=ORIENTED_EDGE('',*,*,#215,.F.);
#288=ORIENTED_EDGE('',*,*,#231,.T.);
#289=ORIENTED_EDGE('',*,*,#226,.T.);
#290=ORIENTED_EDGE('',*,*,#232,.T.);
#291=ORIENTED_EDGE('',*,*,#233,.T.);
#292=ORIENTED_EDGE('',*,*,#232,.F.);
#293=ORIENTED_EDGE('',*,*,#225,.T.);
#294=ORIENTED_EDGE('',*,*,#234,.T.);
#295=ORIENTED_EDGE('',*,*,#235,.T.);
#296=ORIENTED_EDGE('',*,*,#236,.T.);
#297=ORIENTED_EDGE('',*,*,#237,.T.);
#298=ORIENTED_EDGE('',*,*,#238,.T.);
#299=ORIENTED_EDGE('',*,*,#239,.F.);
#300=ORIENTED_EDGE('',*,*,#240,.T.);
#301=ORIENTED_EDGE('',*,*,#238,.F.);
#302=ORIENTED_EDGE('',*,*,#240,.F.);
#303=ORIENTED_EDGE('',*,*,#241,.F.);
#304=ORIENTED_EDGE('',*,*,#242,.T.);
#305=ORIENTED_EDGE('',*,*,#237,.F.);
#306=ORIENTED_EDGE('',*,*,#242,.F.);
#307=ORIENTED_EDGE('',*,*,#220,.F.);
#308=ORIENTED_EDGE('',*,*,#243,.T.);
#309=ORIENTED_EDGE('',*,*,#244,.F.);
#310=ORIENTED_EDGE('',*,*,#243,.F.);
#311=ORIENTED_EDGE('',*,*,#219,.F.);
#312=ORIENTED_EDGE('',*,*,#245,.T.);
#313=ORIENTED_EDGE('',*,*,#246,.F.);
#314=ORIENTED_EDGE('',*,*,#245,.F.);
#315=ORIENTED_EDGE('',*,*,#223,.F.);
#316=ORIENTED_EDGE('',*,*,#247,.F.);
#317=ORIENTED_EDGE('',*,*,#248,.F.);
#318=ORIENTED_EDGE('',*,*,#249,.T.);
#319=ORIENTED_EDGE('',*,*,#224,.F.);
#320=ORIENTED_EDGE('',*,*,#249,.F.);
#321=ORIENTED_EDGE('',*,*,#250,.F.);
#322=ORIENTED_EDGE('',*,*,#234,.F.);
#323=ORIENTED_EDGE('',*,*,#222,.F.);
#324=ORIENTED_EDGE('',*,*,#251,.F.);
#325=ORIENTED_EDGE('',*,*,#252,.F.);
#326=ORIENTED_EDGE('',*,*,#247,.T.);
#327=ORIENTED_EDGE('',*,*,#229,.F.);
#328=ORIENTED_EDGE('',*,*,#253,.T.);
#329=ORIENTED_EDGE('',*,*,#254,.F.);
#330=ORIENTED_EDGE('',*,*,#255,.F.);
#331=ORIENTED_EDGE('',*,*,#253,.F.);
#332=ORIENTED_EDGE('',*,*,#228,.F.);
#333=ORIENTED_EDGE('',*,*,#256,.F.);
#334=ORIENTED_EDGE('',*,*,#257,.T.);
#335=ORIENTED_EDGE('',*,*,#255,.T.);
#336=ORIENTED_EDGE('',*,*,#258,.F.);
#337=ORIENTED_EDGE('',*,*,#216,.F.);
#338=ORIENTED_EDGE('',*,*,#230,.T.);
#339=ORIENTED_EDGE('',*,*,#231,.F.);
#340=ORIENTED_EDGE('',*,*,#259,.T.);
#341=ORIENTED_EDGE('',*,*,#260,.T.);
#342=ORIENTED_EDGE('',*,*,#256,.T.);
#343=ORIENTED_EDGE('',*,*,#227,.T.);
#344=ORIENTED_EDGE('',*,*,#239,.T.);
#345=ORIENTED_EDGE('',*,*,#241,.T.);
#346=ORIENTED_EDGE('',*,*,#233,.F.);
#347=ORIENTED_EDGE('',*,*,#236,.F.);
#348=ORIENTED_EDGE('',*,*,#261,.T.);
#349=ORIENTED_EDGE('',*,*,#259,.F.);
#350=ORIENTED_EDGE('',*,*,#212,.F.);
#351=ORIENTED_EDGE('',*,*,#218,.F.);
#352=ORIENTED_EDGE('',*,*,#262,.F.);
#353=ORIENTED_EDGE('',*,*,#263,.F.);
#354=ORIENTED_EDGE('',*,*,#252,.T.);
#355=ORIENTED_EDGE('',*,*,#264,.F.);
#356=ORIENTED_EDGE('',*,*,#262,.T.);
#357=ORIENTED_EDGE('',*,*,#217,.F.);
#358=ORIENTED_EDGE('',*,*,#258,.T.);
#359=ORIENTED_EDGE('',*,*,#254,.T.);
#360=ORIENTED_EDGE('',*,*,#257,.F.);
#361=ORIENTED_EDGE('',*,*,#260,.F.);
#362=ORIENTED_EDGE('',*,*,#261,.F.);
#363=ORIENTED_EDGE('',*,*,#235,.F.);
#364=ORIENTED_EDGE('',*,*,#250,.T.);
#365=ORIENTED_EDGE('',*,*,#248,.T.);
#366=ORIENTED_EDGE('',*,*,#213,.F.);
#367=ORIENTED_EDGE('',*,*,#263,.T.);
#368=ORIENTED_EDGE('',*,*,#264,.T.);
#369=ORIENTED_EDGE('',*,*,#251,.T.);
#370=ORIENTED_EDGE('',*,*,#221,.T.);
#371=ORIENTED_EDGE('',*,*,#244,.T.);
#372=ORIENTED_EDGE('',*,*,#246,.T.);
#373=CYLINDRICAL_SURFACE('',#415,3.);
#374=CYLINDRICAL_SURFACE('',#424,3.);
#375=CYLINDRICAL_SURFACE('',#430,1.6);
#376=CYLINDRICAL_SURFACE('',#432,1.6);
#377=CYLINDRICAL_SURFACE('',#434,1.6);
#378=CYLINDRICAL_SURFACE('',#436,1.6);
#379=CYLINDRICAL_SURFACE('',#438,18.5);
#380=CYLINDRICAL_SURFACE('',#442,21.5);
#381=ADVANCED_FACE('',(#35),#373,.T.);
#382=ADVANCED_FACE('',(#36,#15,#16),#23,.T.);
#383=ADVANCED_FACE('',(#37),#24,.T.);
#384=ADVANCED_FACE('',(#38),#374,.T.);
#385=ADVANCED_FACE('',(#39,#17,#18),#25,.F.);
#386=ADVANCED_FACE('',(#40),#375,.F.);
#387=ADVANCED_FACE('',(#41),#376,.F.);
#388=ADVANCED_FACE('',(#42),#377,.F.);
#389=ADVANCED_FACE('',(#43),#378,.F.);
#390=ADVANCED_FACE('',(#44),#379,.F.);
#391=ADVANCED_FACE('',(#45),#26,.F.);
#392=ADVANCED_FACE('',(#46),#27,.F.);
#393=ADVANCED_FACE('',(#47),#380,.T.);
#394=ADVANCED_FACE('',(#48),#28,.T.);
#395=ADVANCED_FACE('',(#49),#29,.T.);
#396=ADVANCED_FACE('',(#50,#19,#20),#30,.T.);
#397=ADVANCED_FACE('',(#51),#31,.T.);
#398=ADVANCED_FACE('',(#52),#32,.T.);
#399=ADVANCED_FACE('',(#53),#33,.T.);
#400=ADVANCED_FACE('',(#54,#21,#22),#34,.F.);
#401=CLOSED_SHELL('',(#381,#382,#383,#384,#385,#386,#387,#388,#389,#390,
#391,#392,#393,#394,#395,#396,#397,#398,#399,#400));
#402=DERIVED_UNIT_ELEMENT(#404,1.);
#403=DERIVED_UNIT_ELEMENT(#679,-3.);
#404=(
MASS_UNIT()
NAMED_UNIT(*)
SI_UNIT(.KILO.,.GRAM.)
);
#405=DERIVED_UNIT((#402,#403));
#406=MEASURE_REPRESENTATION_ITEM('density measure',
POSITIVE_RATIO_MEASURE(7850.),#405);
#407=PROPERTY_DEFINITION_REPRESENTATION(#412,#409);
#408=PROPERTY_DEFINITION_REPRESENTATION(#413,#410);
#409=REPRESENTATION('material name',(#411),#676);
#410=REPRESENTATION('density',(#406),#676);
#411=DESCRIPTIVE_REPRESENTATION_ITEM('Steel','Steel');
#412=PROPERTY_DEFINITION('material property','material name',#686);
#413=PROPERTY_DEFINITION('material property','density of part',#686);
#414=AXIS2_PLACEMENT_3D('',#563,#451,#452);
#415=AXIS2_PLACEMENT_3D('',#564,#453,#454);
#416=AXIS2_PLACEMENT_3D('',#567,#455,#456);
#417=AXIS2_PLACEMENT_3D('',#571,#458,#459);
#418=AXIS2_PLACEMENT_3D('',#573,#461,#462);
#419=AXIS2_PLACEMENT_3D('',#582,#467,#468);
#420=AXIS2_PLACEMENT_3D('',#584,#469,#470);
#421=AXIS2_PLACEMENT_3D('',#585,#471,#472);
#422=AXIS2_PLACEMENT_3D('',#591,#475,#476);
#423=AXIS2_PLACEMENT_3D('',#603,#482,#483);
#424=AXIS2_PLACEMENT_3D('',#605,#485,#486);
#425=AXIS2_PLACEMENT_3D('',#607,#487,#488);
#426=AXIS2_PLACEMENT_3D('',#609,#489,#490);
#427=AXIS2_PLACEMENT_3D('',#611,#492,#493);
#428=AXIS2_PLACEMENT_3D('',#618,#497,#498);
#429=AXIS2_PLACEMENT_3D('',#620,#499,#500);
#430=AXIS2_PLACEMENT_3D('',#621,#501,#502);
#431=AXIS2_PLACEMENT_3D('',#623,#503,#504);
#432=AXIS2_PLACEMENT_3D('',#625,#506,#507);
#433=AXIS2_PLACEMENT_3D('',#627,#508,#509);
#434=AXIS2_PLACEMENT_3D('',#629,#511,#512);
#435=AXIS2_PLACEMENT_3D('',#632,#514,#515);
#436=AXIS2_PLACEMENT_3D('',#633,#516,#517);
#437=AXIS2_PLACEMENT_3D('',#636,#519,#520);
#438=AXIS2_PLACEMENT_3D('',#637,#521,#522);
#439=AXIS2_PLACEMENT_3D('',#641,#524,#525);
#440=AXIS2_PLACEMENT_3D('',#643,#527,#528);
#441=AXIS2_PLACEMENT_3D('',#645,#530,#531);
#442=AXIS2_PLACEMENT_3D('',#649,#534,#535);
#443=AXIS2_PLACEMENT_3D('',#653,#537,#538);
#444=AXIS2_PLACEMENT_3D('',#655,#540,#541);
#445=AXIS2_PLACEMENT_3D('',#659,#544,#545);
#446=AXIS2_PLACEMENT_3D('',#661,#547,#548);
#447=AXIS2_PLACEMENT_3D('',#665,#551,#552);
#448=AXIS2_PLACEMENT_3D('',#667,#554,#555);
#449=AXIS2_PLACEMENT_3D('',#671,#558,#559);
#450=AXIS2_PLACEMENT_3D('',#673,#561,#562);
#451=DIRECTION('axis',(0.,0.,1.));
#452=DIRECTION('refdir',(1.,0.,0.));
#453=DIRECTION('center_axis',(0.,0.,1.));
#454=DIRECTION('ref_axis',(0.707106781186547,0.707106781186548,0.));
#455=DIRECTION('center_axis',(0.,0.,-1.));
#456=DIRECTION('ref_axis',(0.707106781186547,0.707106781186548,0.));
#457=DIRECTION('',(0.,0.,-1.));
#458=DIRECTION('center_axis',(0.,0.,1.));
#459=DIRECTION('ref_axis',(0.707106781186547,0.707106781186548,0.));
#460=DIRECTION('',(0.,0.,1.));
#461=DIRECTION('center_axis',(0.,0.,1.));
#462=DIRECTION('ref_axis',(1.,0.,0.));
#463=DIRECTION('',(-1.,0.,0.));
#464=DIRECTION('',(0.,-1.,0.));
#465=DIRECTION('',(1.,0.,0.));
#466=DIRECTION('',(0.,1.,0.));
#467=DIRECTION('center_axis',(0.,0.,-1.));
#468=DIRECTION('ref_axis',(-1.,0.,0.));
#469=DIRECTION('center_axis',(0.,0.,-1.));
#470=DIRECTION('ref_axis',(-1.,0.,0.));
#471=DIRECTION('center_axis',(0.,1.,0.));
#472=DIRECTION('ref_axis',(-1.,0.,0.));
#473=DIRECTION('',(1.,0.,0.));
#474=DIRECTION('',(0.,0.,1.));
#475=DIRECTION('center_axis',(0.,-1.,0.));
#476=DIRECTION('ref_axis',(0.997437908877848,0.,-0.0715375281470243));
#477=DIRECTION('',(0.,0.,-1.));
#478=DIRECTION('',(1.,0.,0.));
#479=DIRECTION('',(0.,0.,-1.));
#480=DIRECTION('',(-1.,0.,0.));
#481=DIRECTION('',(0.,0.,1.));
#482=DIRECTION('center_axis',(0.,1.,0.));
#483=DIRECTION('ref_axis',(1.,0.,0.));
#484=DIRECTION('',(0.,0.,1.));
#485=DIRECTION('center_axis',(0.,0.,1.));
#486=DIRECTION('ref_axis',(-0.707106781186547,0.707106781186548,0.));
#487=DIRECTION('center_axis',(0.,0.,-1.));
#488=DIRECTION('ref_axis',(-0.707106781186547,0.707106781186548,0.));
#489=DIRECTION('center_axis',(0.,0.,1.));
#490=DIRECTION('ref_axis',(-0.707106781186547,0.707106781186548,0.));
#491=DIRECTION('',(0.,0.,1.));
#492=DIRECTION('center_axis',(0.,0.,1.));
#493=DIRECTION('ref_axis',(1.,0.,0.));
#494=DIRECTION('',(0.,-1.,0.));
#495=DIRECTION('',(-1.,0.,0.));
#496=DIRECTION('',(0.,1.,0.));
#497=DIRECTION('center_axis',(0.,0.,1.));
#498=DIRECTION('ref_axis',(-1.,0.,0.));
#499=DIRECTION('center_axis',(0.,0.,1.));
#500=DIRECTION('ref_axis',(-1.,0.,0.));
#501=DIRECTION('center_axis',(0.,0.,-1.));
#502=DIRECTION('ref_axis',(-1.,0.,0.));
#503=DIRECTION('center_axis',(0.,0.,-1.));
#504=DIRECTION('ref_axis',(-1.,0.,0.));
#505=DIRECTION('',(0.,0.,-1.));
#506=DIRECTION('center_axis',(0.,0.,-1.));
#507=DIRECTION('ref_axis',(-1.,0.,0.));
#508=DIRECTION('center_axis',(0.,0.,-1.));
#509=DIRECTION('ref_axis',(-1.,0.,0.));
#510=DIRECTION('',(0.,0.,-1.));
#511=DIRECTION('center_axis',(0.,0.,-1.));
#512=DIRECTION('ref_axis',(-1.,0.,0.));
#513=DIRECTION('',(0.,0.,-1.));
#514=DIRECTION('center_axis',(0.,0.,1.));
#515=DIRECTION('ref_axis',(-1.,0.,0.));
#516=DIRECTION('center_axis',(0.,0.,-1.));
#517=DIRECTION('ref_axis',(-1.,0.,0.));
#518=DIRECTION('',(0.,0.,-1.));
#519=DIRECTION('center_axis',(0.,0.,1.));
#520=DIRECTION('ref_axis',(-1.,0.,0.));
#521=DIRECTION('center_axis',(0.,1.,0.));
#522=DIRECTION('ref_axis',(-0.00386165822373699,0.,0.999992543770084));
#523=DIRECTION('',(0.,1.,0.));
#524=DIRECTION('center_axis',(0.,1.,0.));
#525=DIRECTION('ref_axis',(0.997437908877848,0.,-0.0715375281470243));
#526=DIRECTION('',(0.,1.,0.));
#527=DIRECTION('center_axis',(-1.,0.,0.));
#528=DIRECTION('ref_axis',(0.,0.,1.));
#529=DIRECTION('',(0.,0.,1.));
#530=DIRECTION('center_axis',(1.,0.,0.));
#531=DIRECTION('ref_axis',(0.,0.,-1.));
#532=DIRECTION('',(0.,1.,0.));
#533=DIRECTION('',(0.,0.,-1.));
#534=DIRECTION('center_axis',(0.,1.,0.));
#535=DIRECTION('ref_axis',(1.,0.,0.));
#536=DIRECTION('',(0.,-1.,0.));
#537=DIRECTION('center_axis',(0.,-1.,0.));
#538=DIRECTION('ref_axis',(1.,0.,0.));
#539=DIRECTION('',(0.,-1.,0.));
#540=DIRECTION('center_axis',(-1.,0.,0.));
#541=DIRECTION('ref_axis',(0.,-1.,0.));
#542=DIRECTION('',(0.,1.,0.));
#543=DIRECTION('',(0.,0.,1.));
#544=DIRECTION('center_axis',(1.,0.,0.));
#545=DIRECTION('ref_axis',(0.,1.,0.));
#546=DIRECTION('',(0.,0.,1.));
#547=DIRECTION('center_axis',(0.,0.,1.));
#548=DIRECTION('ref_axis',(1.,0.,0.));
#549=DIRECTION('',(0.,-1.,0.));
#550=DIRECTION('',(1.,0.,0.));
#551=DIRECTION('center_axis',(-1.,0.,0.));
#552=DIRECTION('ref_axis',(0.,-1.,0.));
#553=DIRECTION('',(0.,0.,1.));
#554=DIRECTION('center_axis',(1.,0.,0.));
#555=DIRECTION('ref_axis',(0.,1.,0.));
#556=DIRECTION('',(0.,0.,1.));
#557=DIRECTION('',(0.,-1.,0.));
#558=DIRECTION('center_axis',(0.,-1.,0.));
#559=DIRECTION('ref_axis',(1.,0.,0.));
#560=DIRECTION('',(-1.,0.,0.));
#561=DIRECTION('center_axis',(0.,0.,1.));
#562=DIRECTION('ref_axis',(1.,0.,0.));
#563=CARTESIAN_POINT('',(0.,0.,0.));
#564=CARTESIAN_POINT('Origin',(29.5,10.,0.));
#565=CARTESIAN_POINT('',(29.5,13.,5.));
#566=CARTESIAN_POINT('',(32.5,10.,5.));
#567=CARTESIAN_POINT('Origin',(29.5,10.,5.));
#568=CARTESIAN_POINT('',(32.5,10.,0.));
#569=CARTESIAN_POINT('',(32.5,10.,0.));
#570=CARTESIAN_POINT('',(29.5,13.,0.));
#571=CARTESIAN_POINT('Origin',(29.5,10.,0.));
#572=CARTESIAN_POINT('',(29.5,13.,0.));
#573=CARTESIAN_POINT('Origin',(0.,0.,5.));
#574=CARTESIAN_POINT('',(21.5,13.,5.));
#575=CARTESIAN_POINT('',(-32.5,13.,5.));
#576=CARTESIAN_POINT('',(21.5,-13.0000001937151,5.));
#577=CARTESIAN_POINT('',(21.5,-6.50000009685755,5.));
#578=CARTESIAN_POINT('',(32.5,-13.,5.));
#579=CARTESIAN_POINT('',(32.5,-13.,5.));
#580=CARTESIAN_POINT('',(32.5,13.,5.));
#581=CARTESIAN_POINT('',(28.109884834631,-6.33415074869237,5.));
#582=CARTESIAN_POINT('Origin',(26.509884834631,-6.33415074869237,5.));
#583=CARTESIAN_POINT('',(28.1098846115363,6.33415073143004,5.));
#584=CARTESIAN_POINT('Origin',(26.5098846115363,6.33415073143004,5.));
#585=CARTESIAN_POINT('Origin',(32.5,13.,0.));
#586=CARTESIAN_POINT('',(18.4526013142402,13.,0.));
#587=CARTESIAN_POINT('',(-32.5,13.,0.));
#588=CARTESIAN_POINT('',(18.4526013142402,13.,17.1765557292801));
#589=CARTESIAN_POINT('',(18.4526013142402,13.,8.58827786464003));
#590=CARTESIAN_POINT('',(-18.4418296662497,13.,17.0340809841497));
#591=CARTESIAN_POINT('Origin',(0.,13.,18.5));
#592=CARTESIAN_POINT('',(-18.4418296662497,13.,0.));
#593=CARTESIAN_POINT('',(-18.4418296662497,13.,0.));
#594=CARTESIAN_POINT('',(-29.5,13.,0.));
#595=CARTESIAN_POINT('',(-32.5,13.,0.));
#596=CARTESIAN_POINT('',(-29.5,13.,5.));
#597=CARTESIAN_POINT('',(-29.5,13.,0.));
#598=CARTESIAN_POINT('',(-21.5,13.,5.));
#599=CARTESIAN_POINT('',(-32.5,13.,5.));
#600=CARTESIAN_POINT('',(-21.5,13.,20.5));
#601=CARTESIAN_POINT('',(-21.5,13.,5.));
#602=CARTESIAN_POINT('',(21.5,13.,20.5));
#603=CARTESIAN_POINT('Origin',(0.,13.,20.5));
#604=CARTESIAN_POINT('',(21.5,13.,5.));
#605=CARTESIAN_POINT('Origin',(-29.5,10.,0.));
#606=CARTESIAN_POINT('',(-32.5,10.,5.));
#607=CARTESIAN_POINT('Origin',(-29.5,10.,5.));
#608=CARTESIAN_POINT('',(-32.5,10.,0.));
#609=CARTESIAN_POINT('Origin',(-29.5,10.,0.));
#610=CARTESIAN_POINT('',(-32.5,10.,0.));
#611=CARTESIAN_POINT('Origin',(0.,0.,0.));
#612=CARTESIAN_POINT('',(-18.4418296662497,-13.,0.));
#613=CARTESIAN_POINT('',(-18.4418296662497,-6.5,0.));
#614=CARTESIAN_POINT('',(-32.5,-13.,0.));
#615=CARTESIAN_POINT('',(32.5,-13.,0.));
#616=CARTESIAN_POINT('',(-32.5,-13.,0.));
#617=CARTESIAN_POINT('',(-24.909884834631,-6.33415053771494,0.));
#618=CARTESIAN_POINT('Origin',(-26.509884834631,-6.33415053771494,0.));
#619=CARTESIAN_POINT('',(-24.9098846115363,6.33415073143004,0.));
#620=CARTESIAN_POINT('Origin',(-26.5098846115363,6.33415073143004,0.));
#621=CARTESIAN_POINT('Origin',(-26.5098846115363,6.33415073143004,5.));
#622=CARTESIAN_POINT('',(-24.9098846115363,6.33415073143004,5.));
#623=CARTESIAN_POINT('Origin',(-26.5098846115363,6.33415073143004,5.));
#624=CARTESIAN_POINT('',(-24.9098846115363,6.33415073143004,5.));
#625=CARTESIAN_POINT('Origin',(-26.509884834631,-6.33415053771494,5.));
#626=CARTESIAN_POINT('',(-24.909884834631,-6.33415053771494,5.));
#627=CARTESIAN_POINT('Origin',(-26.509884834631,-6.33415053771494,5.));
#628=CARTESIAN_POINT('',(-24.909884834631,-6.33415053771494,5.));
#629=CARTESIAN_POINT('Origin',(26.5098846115363,6.33415073143004,5.));
#630=CARTESIAN_POINT('',(28.1098846115363,6.33415073143004,0.));
#631=CARTESIAN_POINT('',(28.1098846115363,6.33415073143004,5.));
#632=CARTESIAN_POINT('Origin',(26.5098846115363,6.33415073143004,0.));
#633=CARTESIAN_POINT('Origin',(26.509884834631,-6.33415074869237,5.));
#634=CARTESIAN_POINT('',(28.109884834631,-6.33415074869237,0.));
#635=CARTESIAN_POINT('',(28.109884834631,-6.33415074869237,5.));
#636=CARTESIAN_POINT('Origin',(26.509884834631,-6.33415074869237,0.));
#637=CARTESIAN_POINT('Origin',(0.,-13.,18.5));
#638=CARTESIAN_POINT('',(18.4526013142402,-13.,17.1765557292801));
#639=CARTESIAN_POINT('',(18.4526013142402,-13.,17.1765557292801));
#640=CARTESIAN_POINT('',(-18.4418296662497,-13.,17.0340809841497));
#641=CARTESIAN_POINT('Origin',(0.,-13.,18.5));
#642=CARTESIAN_POINT('',(-18.4418296662497,-13.,17.0340809841497));
#643=CARTESIAN_POINT('Origin',(-18.4418296662497,-13.,0.));
#644=CARTESIAN_POINT('',(-18.4418296662497,-13.,0.));
#645=CARTESIAN_POINT('Origin',(18.4526013142402,-13.,17.1765557292801));
#646=CARTESIAN_POINT('',(18.4526013142402,-13.,0.));
#647=CARTESIAN_POINT('',(18.4526013142402,-6.5,0.));
#648=CARTESIAN_POINT('',(18.4526013142402,-13.,8.58827786464003));
#649=CARTESIAN_POINT('Origin',(0.,-13.,20.5));
#650=CARTESIAN_POINT('',(-21.5,-13.,20.5));
#651=CARTESIAN_POINT('',(-21.5,-13.,20.5));
#652=CARTESIAN_POINT('',(21.5,-13.,20.5));
#653=CARTESIAN_POINT('Origin',(0.,-13.,20.5));
#654=CARTESIAN_POINT('',(21.5,-13.,20.5));
#655=CARTESIAN_POINT('Origin',(-21.5,13.,5.));
#656=CARTESIAN_POINT('',(-21.5,-13.,5.));
#657=CARTESIAN_POINT('',(-21.5,6.5,5.));
#658=CARTESIAN_POINT('',(-21.5,-13.,5.));
#659=CARTESIAN_POINT('Origin',(21.5,-13.0000001937151,5.));
#660=CARTESIAN_POINT('',(21.5,-13.0000001937151,5.));
#661=CARTESIAN_POINT('Origin',(0.,0.,5.));
#662=CARTESIAN_POINT('',(-32.5,-13.,5.));
#663=CARTESIAN_POINT('',(-32.5,-13.,5.));
#664=CARTESIAN_POINT('',(32.5,-13.,5.));
#665=CARTESIAN_POINT('Origin',(-32.5,13.,0.));
#666=CARTESIAN_POINT('',(-32.5,-13.,0.));
#667=CARTESIAN_POINT('Origin',(32.5,-13.,0.));
#668=CARTESIAN_POINT('',(32.5,-13.,0.));
#669=CARTESIAN_POINT('',(32.5,-13.,0.));
#670=CARTESIAN_POINT('',(32.5,13.,0.));
#671=CARTESIAN_POINT('Origin',(-32.5,-13.,0.));
#672=CARTESIAN_POINT('',(32.5,-13.,0.));
#673=CARTESIAN_POINT('Origin',(0.,0.,0.));
#674=UNCERTAINTY_MEASURE_WITH_UNIT(LENGTH_MEASURE(0.01),#678,
'DISTANCE_ACCURACY_VALUE',
'Maximum model space distance between geometric entities at asserted c
onnectivities');
#675=UNCERTAINTY_MEASURE_WITH_UNIT(LENGTH_MEASURE(0.01),#678,
'DISTANCE_ACCURACY_VALUE',
'Maximum model space distance between geometric entities at asserted c
onnectivities');
#676=(
GEOMETRIC_REPRESENTATION_CONTEXT(3)
GLOBAL_UNCERTAINTY_ASSIGNED_CONTEXT((#674))
GLOBAL_UNIT_ASSIGNED_CONTEXT((#678,#680,#681))
REPRESENTATION_CONTEXT('','3D')
);
#677=(
GEOMETRIC_REPRESENTATION_CONTEXT(3)
GLOBAL_UNCERTAINTY_ASSIGNED_CONTEXT((#675))
GLOBAL_UNIT_ASSIGNED_CONTEXT((#678,#680,#681))
REPRESENTATION_CONTEXT('','3D')
);
#678=(
LENGTH_UNIT()
NAMED_UNIT(*)
SI_UNIT(.MILLI.,.METRE.)
);
#679=(
LENGTH_UNIT()
NAMED_UNIT(*)
SI_UNIT($,.METRE.)
);
#680=(
NAMED_UNIT(*)
PLANE_ANGLE_UNIT()
SI_UNIT($,.RADIAN.)
);
#681=(
NAMED_UNIT(*)
SI_UNIT($,.STERADIAN.)
SOLID_ANGLE_UNIT()
);
#682=SHAPE_DEFINITION_REPRESENTATION(#683,#684);
#683=PRODUCT_DEFINITION_SHAPE('',$,#686);
#684=SHAPE_REPRESENTATION('',(#414),#676);
#685=PRODUCT_DEFINITION_CONTEXT('part definition',#690,'design');
#686=PRODUCT_DEFINITION('2026-04-21-02-49-54-818','Mount',#687,#685);
#687=PRODUCT_DEFINITION_FORMATION('',$,#692);
#688=PRODUCT_RELATED_PRODUCT_CATEGORY('Mount','Mount',(#692));
#689=APPLICATION_PROTOCOL_DEFINITION('international standard',
'automotive_design',2009,#690);
#690=APPLICATION_CONTEXT(
'Core Data for Automotive Mechanical Design Process');
#691=PRODUCT_CONTEXT('part definition',#690,'mechanical');
#692=PRODUCT('2026-04-21-02-49-54-818','Mount',$,(#691));
#693=PRESENTATION_STYLE_ASSIGNMENT((#695));
#694=PRESENTATION_STYLE_ASSIGNMENT((#696));
#695=SURFACE_STYLE_USAGE(.BOTH.,#697);
#696=SURFACE_STYLE_USAGE(.BOTH.,#698);
#697=SURFACE_SIDE_STYLE('',(#699));
#698=SURFACE_SIDE_STYLE('',(#700));
#699=SURFACE_STYLE_FILL_AREA(#701);
#700=SURFACE_STYLE_FILL_AREA(#702);
#701=FILL_AREA_STYLE('Steel - Satin',(#703));
#702=FILL_AREA_STYLE(
'PA 12 - Nylon - PA 603-CF (with EOS P 3D Printers)',(#704));
#703=FILL_AREA_STYLE_COLOUR('Steel - Satin',#705);
#704=FILL_AREA_STYLE_COLOUR(
'PA 12 - Nylon - PA 603-CF (with EOS P 3D Printers)',#706);
#705=COLOUR_RGB('Steel - Satin',0.627450980392157,0.627450980392157,0.627450980392157);
#706=COLOUR_RGB('PA 12 - Nylon - PA 603-CF (with EOS P 3D Printers)',0.247058823529412,
0.247058823529412,0.247058823529412);
ENDSEC;
END-ISO-10303-21;
